<ttFont>
<head>
    <!-- Most of this table will be recalculated by the compiler -->
    <tableVersion value="1.0"/>
    <fontRevision value="3.01"/>
    <checkSumAdjustment value="0x10083e36"/>
    <magicNumber value="0x5f0f3cf5"/>
    <flags value="00000000 00000011"/>
    <unitsPerEm value="1000"/>
    <created value="Mon Aug 14 17:47:30 2017"/>
    <modified value="Mon Aug 14 17:47:30 2017"/>
    <xMin value="-492"/>
    <yMin value="-543"/>
    <xMax value="2707"/>
    <yMax value="1026"/>
    <macStyle value="00000000 00000010"/>
    <lowestRecPPEM value="3"/>
    <fontDirectionHint value="2"/>
    <indexToLocFormat value="0"/>
    <glyphDataFormat value="0"/>
  </head>
          <CharString index="0">
            -74 callgsubr
            -25 60 -104 147 hhcurveto
            11 8 1 1 10 hvcurveto
            -105 callgsubr
            rlineto
            148 26 76 93 113 hhcurveto
            return
          </CharString>
          <CharString index="1">
            39 callsubr
            4 1 7 2 8 -98 callsubr
            return
          </CharString>
          <CharString index="2">
            hlineto
            -3 -16 rlineto
            542 -101 callgsubr
            return
          </CharString>
          <CharString index="3">
            187 callgsubr
            -17 hlineto
            -108 -16 -64 -84 -106 hhcurveto
            -113 -44 81 116 20 hvcurveto
            33 190 rlineto
            return
          </CharString>
          <CharString index="4">
            -103 callgsubr
            33 190 rlineto
            return
          </CharString>
          <CharString index="5">
            344 callsubr
            106 77 -78 -131 -23 hvcurveto
            -138 -24 -101 -78 -107 hhcurveto
            -19 -21 2 4 -16 hvcurveto
            -89 callsubr
            -3 13 22 -3 21 hhcurveto
            121 105 85 190 callsubr
            140 25 -85 85 -116 hhcurveto
            -112 -73 -67 -76 -38 hvcurveto
            50 283 rlineto
            533 -76 callgsubr
            return
          </CharString>
          <CharString index="6">
            14 2 -9 10 -13 hhcurveto
            -15 -91 callgsubr
            return
          </CharString>
          <CharString index="7">
            hlineto
            -89 callsubr
            return
          </CharString>
          <CharString index="8">
            rmoveto
            -121 -81 94 callsubr
            134 24 113 79 117 -75 callgsubr
            return
          </CharString>
          <CharString index="9">
            rrcurveto
            -96 callgsubr
            return
          </CharString>
          <CharString index="10">
            -100 callsubr
            333 -11 callsubr
            -16 65 57 10 hvcurveto
            6 31 rlineto
            -17 hlineto
            -6 -30 rlineto
            -69 -12 28 -70 90 hhcurveto
            92 45 67 74 13 hvcurveto
            55 310 rlineto
            return
          </CharString>
          <CharString index="11">
            -58 callsubr
            -138 -24 -99 -78 -109 hhcurveto
            -19 -21 2 4 -16 hvcurveto
            -89 callsubr
            -3 13 22 -3 21 hhcurveto
            119 107 85 190 callsubr
            140 25 -83 85 -116 hhcurveto
            -114 -74 -69 -77 -37 hvcurveto
            50 286 rlineto
            return
          </CharString>
          <CharString index="12">
            -37 callsubr
            129 109 67 130 24 hvcurveto
            122 23 -68 81 -112 hhcurveto
            -132 -92 -105 -144 hvcurveto
            17 hlineto
            133 82 100 125 98 63 -70 -113 101 callgsubr
            -153 hlineto
            -28 -160 rlineto
            -127 -23 51 -87 127 hhcurveto
            122 72 92 300 callsubr
            return
          </CharString>
          <CharString index="13">
            hvcurveto
            15 89 rlineto
            251 hlineto
            -64 -363 rlineto
            -126 -26 -116 -81 -122 hhcurveto
            return
          </CharString>
          <CharString index="14">
            -159 -28 85 -92 159 hhcurveto
            24 hlineto
            -69 callsubr
            161 return
          </CharString>
          <CharString index="15">
            -53 callgsubr
            70 54 87 333 callgsubr
            return
          </CharString>
          <CharString index="16">
            hhcurveto
            89 70 48 74 38 hvcurveto
            -96 callsubr
            return
          </CharString>
          <CharString index="17">
            285 callsubr
            198 callsubr
            -17 hlineto
            -30 -169 -18 -103 50 -77 95 -1 rlinecurve
            107 323 callsubr
            return
          </CharString>
          <CharString index="18">
            -3 -16 rlineto
            return
          </CharString>
          <CharString index="19">
            18 callgsubr
            211 37 -114 148 -196 hhcurveto
            -196 -166 -148 -211 -37 hvcurveto
            651 hmoveto
            -212 -37 -163 -129 -175 hhcurveto
            -175 -117 129 212 37 hvcurveto
            212 37 163 129 175 hhcurveto
            175 117 -129 305 callgsubr
            return
          </CharString>
          <CharString index="20">
            3 16 rlineto
            return
          </CharString>
          <CharString index="21">
            355 callgsubr
            -50 96 124 22 hvcurveto
            return
          </CharString>
          <CharString index="22">
            -93 callsubr
            29 return
          </CharString>
          <CharString index="23">
            -86 callgsubr
            68 hlineto
            291 callsubr
            return
          </CharString>
          <CharString index="24">
            270 rmoveto
            -174 -31 96 -103 150 hhcurveto
            150 131 103 174 31 hvcurveto
            174 31 -95 103 -150 hhcurveto
            -150 -132 157 callgsubr
            507 hmoveto
            -179 -32 -133 -80 -124 hhcurveto
            -124 -106 80 179 32 hvcurveto
            179 32 134 80 124 hhcurveto
            124 105 -80 -179 -32 hvcurveto
            return
          </CharString>
          <CharString index="25">
            -91 callsubr
            endchar
          </CharString>
          <CharString index="26">
            -78 callsubr
            -64 callgsubr
            return
          </CharString>
          <CharString index="27">
            287 callsubr
            15 82 -40 59 -56 19 rrcurveto
            return
          </CharString>
          <CharString index="28">
            127 -46 callgsubr
            return
          </CharString>
          <CharString index="29">
            3 callsubr
            -124 -22 -84 -96 -138 hhcurveto
            -10 -10 1 1 -11 290 callsubr
            -1 12 13 -1 12 hhcurveto
            return
          </CharString>
          <CharString index="30">
            rmoveto
            18 hlineto
            33 10 18 15 23 42 5 -50 52 hhcurveto
            34 31 29 36 8 hvcurveto
            -18 hlineto
            -31 -9 -22 -16 -21 -47 -2 50 -50 hhcurveto
            -34 -26 -26 -40 -12 hvcurveto
            return
          </CharString>
          <CharString index="31">
            -100 callsubr
            479 243 callgsubr
            69 -40 92 hhcurveto
            45 hlineto
            121 57 -56 -92 -17 hvcurveto
            -70 -12 -58 -64 -114 hhcurveto
            -132 -52 76 81 1 hvcurveto
            -15 hlineto
            -44 -244 rlineto
            17 hlineto
            34 188 rlineto
            -29 5 44 -88 138 hhcurveto
            125 65 70 80 15 hvcurveto
            15 84 -44 49 -61 17 return
          </CharString>
          <CharString index="32">
            103 79 109 19 hvcurveto
            93 16 -57 67 -88 hhcurveto
            -83 -70 -52 -86 -15 319 callsubr
            -10 -6 vvcurveto
            17 hlineto
            8 1 7 1 7 vhcurveto
            76 11 65 47 72 hhcurveto
            82 48 -61 -83 -15 hvcurveto
            -99 -18 -96 -73 -118 hhcurveto
            -151 -96 104 152 27 hvcurveto
            177 31 141 85 155 hhcurveto
            return
          </CharString>
          <CharString index="33">
            rrcurveto
            -110 -19 56 -102 147 hhcurveto
            127 77 82 63 335 callsubr
            -50 91 104 19 hvcurveto
            100 18 86 97 132 hhcurveto
            119 45 -73 -56 5 hvcurveto
            17 hlineto
            63 -5 -49 82 -129 365 callsubr
            -4 -20 hvcurveto
            -61 215 callsubr
            14 77 27 75 hhcurveto
            192 hlineto
            endchar
          </CharString>
          <CharString index="34">
            -20 hlineto
            -52 -290 rlineto
            -166 -29 -102 -78 -123 hhcurveto
            -119 -67 73 144 26 hvcurveto
            56 317 rlineto
            -19 hlineto
            -56 -315 rlineto
            -167 -29 86 -70 118 hhcurveto
            94 100 49 115 47 hvcurveto
            return
          </CharString>
          <CharString index="35">
            -42 -241 rlineto
            17 hlineto
            56 321 rlineto
            -15 hlineto
            -128 -22 -117 -48 -80 hhcurveto
            -125 -70 86 127 22 hvcurveto
            return
          </CharString>
          <CharString index="36">
            -98 callgsubr
            358 rlineto
            return
          </CharString>
          <CharString index="37">
            -171 -31 86 -60 callsubr
            return
          </CharString>
          <CharString index="38">
            -87 callsubr
            -24 hlineto
            -155 -73 85 150 26 hvcurveto
            return
          </CharString>
          <CharString index="39">
            -148 -26 90 -86 131 102 callsubr
            return
          </CharString>
          <CharString index="40">
            rmoveto
            1 4 rlineto
            -20 hlineto
            -57 -11 -41 -33 -62 hhcurveto
            -62 -31 33 57 11 hvcurveto
            -20 hlineto
            -1 -4 rlineto
            -48 -9 23 -56 85 hhcurveto
            85 43 56 48 9 hvcurveto
            return
          </CharString>
          <CharString index="41">
            43 callgsubr
            endchar
          </CharString>
          <CharString index="42">
            17 hlineto
            -79 callsubr
            return
          </CharString>
          <CharString index="43">
            162 -76 callgsubr
            return
          </CharString>
          <CharString index="44">
            -79 -49 55 83 15 hvcurveto
            85 15 return
          </CharString>
          <CharString index="45">
            rmoveto
            96 18 79 -102 callgsubr
            return
          </CharString>
          <CharString index="46">
            hhcurveto
            45 hlineto
            89 94 -30 -118 -21 hvcurveto
            -78 -14 -73 -65 -119 hhcurveto
            -150 -53 81 96 305 callsubr
            return
          </CharString>
          <CharString index="47">
            -111 161 -69 callgsubr
            return
          </CharString>
          <CharString index="48">
            274 callgsubr
            -54 callsubr
            return
          </CharString>
          <CharString index="49">
            70 callsubr
            63 359 rlineto
            96 19 76 113 -43 callsubr
            return
          </CharString>
          <CharString index="50">
            704 rmoveto
            -344 348 callgsubr
            344 190 callgsubr
            -324 216 callsubr
            294 hlineto
            4 98 callsubr
            324 hlineto
            return
          </CharString>
          <CharString index="51">
            rlineto
            1 callgsubr
            return
          </CharString>
          <CharString index="52">
            300 callgsubr
            -18 -77 -75 -101 hhcurveto
            -115 -43 82 115 21 hvcurveto
            25 145 306 callgsubr
            return
          </CharString>
          <CharString index="53">
            -101 -17 62 -73 108 -22 callgsubr
            return
          </CharString>
          <CharString index="54">
            hlineto
            -50 -284 rlineto
            80 -12 -59 68 -125 hhcurveto
            return
          </CharString>
          <CharString index="55">
            rmoveto
            153 48 -119 -103 -18 hvcurveto
            -9 -48 -27 -57 -45 -43 -48 callgsubr
            return
          </CharString>
          <CharString index="56">
            15 82 -40 59 -56 19 rrcurveto
            return
          </CharString>
          <CharString index="57">
            275 247 -35 callgsubr
            return
          </CharString>
          <CharString index="58">
            154 -104 callgsubr
            return
          </CharString>
          <CharString index="59">
            hhcurveto
            14 12 10 14 2 hvcurveto
            return
          </CharString>
          <CharString index="60">
            230 callgsubr
            60 hhcurveto
            -75 -441 rmoveto
            -66 callgsubr
            return
          </CharString>
          <CharString index="61">
            -90 -44 154 callsubr
            57 326 rlineto
            292 hlineto
            -57 -326 rlineto
            -96 -17 -66 -68 -92 hhcurveto
            return
          </CharString>
          <CharString index="62">
            128 -46 callgsubr
            return
          </CharString>
          <CharString index="63">
            rmoveto
            -57 callgsubr
            return
          </CharString>
          <CharString index="64">
            315 callsubr
            77 83 callgsubr
            return
          </CharString>
          <CharString index="65">
            133 77 71 88 16 hvcurveto
            122 22 -98 42 -99 hhcurveto
            -45 hlineto
            -77 -67 29 86 15 hvcurveto
            99 18 97 18 76 hhcurveto
            return
          </CharString>
          <CharString index="66">
            156 callgsubr
            -15 -82 -59 -45 -69 -38 -107 4 -75 57 17 103 rrcurveto
            178 -635 rmoveto
            43 244 rlineto
            -17 hlineto
            -85 -15 -68 -67 -94 hhcurveto
            -93 -42 63 79 14 hvcurveto
            22 124 128 39 111 58 rrcurveto
            return
          </CharString>
          <CharString index="67">
            724 -87 callgsubr
            return
          </CharString>
          <CharString index="68">
            hhcurveto
            -123 -95 -78 -125 -22 hvcurveto
            -18 -98 41 -71 81 -24 rrcurveto
            -79 -38 -82 -74 -107 hhcurveto
            return
          </CharString>
          <CharString index="69">
            rmoveto
            114 20 88 73 113 hhcurveto
            114 62 -73 -114 -20 hvcurveto
            -112 -20 -88 -74 -114 hhcurveto
            -113 -62 74 291 callgsubr
            return
          </CharString>
          <CharString index="70">
            rmoveto
            -55 callsubr
            return
          </CharString>
          <CharString index="71">
            rmoveto
            -79 -49 55 83 15 hvcurveto
            1 8 2 7 3 8 1 3 1 4 2 4 rrcurveto
            65 25 62 40 75 333 callgsubr
            -488 210 rmoveto
            310 callgsubr
            -12 -3 -11 -4 -11 -1 -4 -1 -3 -2 -4 rrcurveto
            -87 -33 -78 -54 -98 hhcurveto
            -113 -62 74 291 callgsubr
            921 83 rmoveto
            -232 127 callgsubr
            232 hlineto
            -1110 -708 rmoveto
            -84 callgsubr
            748 hlineto
            -49 -279 rlineto
            -122 hlineto
            -64 -55 -26 -43 -35 hvcurveto
            117 15 -69 72 -119 -39 callsubr
            1289 708 -87 callgsubr
            -1521 -78 callgsubr
            86 73 38 66 44 hvcurveto
            -77 -2 53 -51 82 -34 callsubr
          </CharString>
          <CharString index="72">
            hvcurveto
            62 callsubr
            return
          </CharString>
          <CharString index="73">
            -11 callgsubr
            18 104 rlineto
            232 hlineto
            -75 -429 37 callsubr
          </CharString>
          <CharString index="74">
            rmoveto
            127 22 101 82 116 hhcurveto
            122 64 -86 -123 -22 hvcurveto
            -117 -21 -95 -85 -120 hhcurveto
            -116 -72 82 217 callgsubr
            423 hmoveto
            123 22 94 86 122 hhcurveto
            116 71 -82 -127 -22 hvcurveto
            -120 -21 -102 -82 -116 hhcurveto
            -120 -65 85 117 21 hvcurveto
            return
          </CharString>
          <CharString index="75">
            hlineto
            69 19 75 60 23 123 return
          </CharString>
          <CharString index="76">
            hvcurveto
            -34 callgsubr
            return
          </CharString>
          <CharString index="77">
            -38 callsubr
            -140 -346 rmoveto
            -84 callgsubr
            693 hlineto
            -17 -117 rlineto
            -150 -21 -114 -42 -109 hhcurveto
            -7 hlineto
            94 -4 -66 56 -105 -39 callsubr
            745 138 rmoveto
            -148 -74 90 121 11 hvcurveto
            1 5 1 7 1 8 1 4 0 5 1 5 rrcurveto
            3 hlineto
            128 114 52 156 22 hvcurveto
            17 117 rlineto
            250 hlineto
            -64 -363 rlineto
            -126 -26 -116 -81 -122 hhcurveto
            507 570 -87 callgsubr
            -1484 -78 callgsubr
            103 86 55 93 38 hvcurveto
            -98 13 78 -72 131 -69 callgsubr
            endchar
          </CharString>
          <CharString index="78">
            27 callgsubr
            -104 -19 65 -89 154 hhcurveto
            -42 callsubr
            return
          </CharString>
          <CharString index="79">
            hhcurveto
            91 81 48 64 33 hvcurveto
            -66 callsubr
          </CharString>
          <CharString index="80">
            -70 callgsubr
            63 359 rlineto
            96 19 76 113 141 hhcurveto
            return
          </CharString>
          <CharString index="81">
            rmoveto
            -113 -62 74 291 callgsubr
            310 callgsubr
            -11 -3 -11 -3 -10 -3 -8 -3 -7 -3 -8 rrcurveto
            -81 -35 -76 -50 -94 hhcurveto
            -295 -160 rmoveto
            -84 callgsubr
            910 171 callsubr
            -123 -99 -39 -84 -58 hvcurveto
            114 12 -68 71 -118 hhcurveto
            -123 -95 -78 -125 -22 hvcurveto
            -17 -98 40 -71 81 -24 rrcurveto
            -79 -38 -82 -74 -107 hhcurveto
            1201 708 -87 callgsubr
            -1433 -100 callsubr
            328 hlineto
            -28 -161 rlineto
            -144 -25 -85 -25 -69 89 callgsubr
            -23 78 307 callgsubr
            80 70 33 59 45 hvcurveto
            -158 -28 85 -92 159 hhcurveto
            24 hlineto
            -69 callsubr
            3 17 4 17 5 15 3 7 3 8 3 7 rrcurveto
            112 47 106 51 137 hhcurveto
            166 344 callgsubr
            endchar
          </CharString>
          <CharString index="82">
            -3 -10 callsubr
            17 hlineto
            return
          </CharString>
          <CharString index="83">
            rmoveto
            85 15 75 45 96 hhcurveto
            133 39 -84 -50 4 hvcurveto
            20 hlineto
            68 -4 -57 84 -132 hhcurveto
            -121 -74 -66 -82 -14 hvcurveto
            -50 -282 427 155 -47 -277 rrcurveto
            -80 -14 -65 -68 -110 hhcurveto
            -146 -40 100 58 2 hvcurveto
            -20 hlineto
            -83 -4 67 -93 138 hhcurveto
            134 65 89 77 13 hvcurveto
            51 295 -427 -155 46 264 rrcurveto
            return
          </CharString>
          <CharString index="84">
            -21 callgsubr
            rlineto
            return
          </CharString>
          <CharString index="85">
            -60 callgsubr
            49 -89 131 hhcurveto
            return
          </CharString>
          <CharString index="86">
            351 rmoveto
            -210 -37 111 -148 191 hhcurveto
            169 119 85 129 70 hvcurveto
            -20 hlineto
            329 callgsubr
            -84 -160 hhcurveto
            -170 -114 129 211 37 hvcurveto
            213 37 160 129 170 hhcurveto
            160 85 -84 -113 21 hvcurveto
            20 hlineto
            130 -25 -89 85 -169 hhcurveto
            -191 -163 -148 305 callgsubr
            return
          </CharString>
          <CharString index="87">
            rlineto
            -64 callsubr
            return
          </CharString>
          <CharString index="88">
            584 rmoveto
            -111 -68 -65 -75 -35 hvcurveto
            49 280 rlineto
            828 -53 callsubr
            -105 -99 -59 -101 -45 hvcurveto
            99 -7 -68 57 -93 hhcurveto
            -486 -441 -107 callgsubr
            828 -2 -99 callsubr
            return
          </CharString>
          <CharString index="89">
            rmoveto
            362 callsubr
            196 166 148 211 37 hvcurveto
            return
          </CharString>
          <CharString index="90">
            -124 -51 -71 callgsubr
            21 callsubr
            return
          </CharString>
          <CharString index="91">
            rlineto
            -65 callsubr
            return
          </CharString>
          <CharString index="92">
            78 -95 134 -28 callsubr
          </CharString>
          <CharString index="93">
            -31 callgsubr
            endchar
          </CharString>
          <CharString index="94">
            rmoveto
            -84 callgsubr
            597 hlineto
            6 19 22 3 21 hhcurveto
            104 57 366 callgsubr
            hvcurveto
            -119 -21 -100 -66 -122 hhcurveto
            -136 hlineto
            122 22 -69 78 -124 -39 callsubr
            854 172 rmoveto
            3 1 4 1 4 vhcurveto
            -17 hlineto
            -2 -11 rlineto
            -109 -20 -74 -72 -100 hhcurveto
            -117 -41 84 113 21 hvcurveto
            26 145 rlineto
            135 hlineto
            131 109 71 130 23 hvcurveto
            126 22 -63 73 -114 hhcurveto
            -22 -27 -3 -6 -18 hvcurveto
            -937 -78 callgsubr
            90 77 42 72 43 hvcurveto
            -12 -64 rlineto
            -136 -26 56 -83 120 hhcurveto
            116 77 77 217 callgsubr
            return
          </CharString>
          <CharString index="95">
            206 724 63 callsubr
            return
          </CharString>
          <CharString index="96">
            hlineto
            -55 -310 rlineto
            -61 -11 -35 -64 -87 hhcurveto
            -83 return
          </CharString>
          <CharString index="97">
            -16 rlineto
            162 hlineto
            -128 -724 rlineto
            return
          </CharString>
          <CharString index="98">
            270 rmoveto
            -174 -31 92 -103 150 79 callsubr
            200 callgsubr
            -124 -102 80 179 32 hvcurveto
            179 32 130 80 124 hhcurveto
            120 79 -65 -107 -2 hvcurveto
            20 hlineto
            111 2 -76 79 -140 236 callgsubr
            return
          </CharString>
          <CharString index="99">
            269 424 rmoveto
            146 callgsubr
            17 hlineto
            128 724 rlineto
            return
          </CharString>
          <CharString index="100">
            152 2 callsubr
            return
          </CharString>
          <CharString index="101">
            -10 -14 -2 hvcurveto
            -14 return
          </CharString>
          <CharString index="102">
            -32 callgsubr
            endchar
          </CharString>
          <CharString index="103">
            rmoveto
            -17 callsubr
            return
          </CharString>
          <CharString index="104">
            hvcurveto
            -51 callsubr
            return
          </CharString>
          <CharString index="105">
            rmoveto
            -110 81 -4 -20 110 -81 137 81 4 20 rlineto
            endchar
          </CharString>
          <CharString index="106">
            rmoveto
            -109 81 -138 -81 -4 -20 138 81 109 -81 rlineto
            endchar
          </CharString>
          <CharString index="107">
            -26 83 -85 123 hhcurveto
            return
          </CharString>
          <CharString index="108">
            45 callsubr
            55 -63 91 hhcurveto
            92 66 62 127 22 hvcurveto
            return
          </CharString>
          <CharString index="109">
            -44 callsubr
            180 173 rmoveto
            18 104 rlineto
            return
          </CharString>
          <CharString index="110">
            hhcurveto
            11 8 1 1 10 hvcurveto
            -105 callgsubr
            rlineto
            148 26 76 93 113 hhcurveto
            111 37 -92 256 callgsubr
            return
          </CharString>
          <CharString index="111">
            hmoveto
            23 hlineto
            -140 683 rlineto
            -20 hlineto
            -381 -683 rlineto
            23 hlineto
            108 194 rlineto
            348 hlineto
            return
          </CharString>
          <CharString index="112">
            351 8 callgsubr
            return
          </CharString>
          <CharString index="113">
            -2 -14 -1 -15 -15 vvcurveto
            17 hlineto
            16 1 14 2 14 vhcurveto
            return
          </CharString>
          <CharString index="114">
            rmoveto
            -66 callgsubr
            1085 588 -87 callgsubr
            -1343 -100 callsubr
            1165 hlineto
            -38 -215 rlineto
            -274 285 callsubr
            -92 hhcurveto
            -88 -45 154 callsubr
            1 8 rlineto
            1 3 1 2 3 vvcurveto
            1 4 rlineto
            2 vlineto
            0 vlineto
            105 15 -51 127 -163 -23 callgsubr
            117 91 71 92 43 hvcurveto
            6 -73 50 -50 76 -1 177 callsubr
            -849 -147 241 callgsubr
            endchar
          </CharString>
          <CharString index="115">
            29 callgsubr
            -74 -441 321 callsubr
            return
          </CharString>
          <CharString index="116">
            rmoveto
            -155 -79 123 158 30 268 callsubr
            244 callsubr
            3 hlineto
            137 98 40 141 24 -94 callsubr
            return
          </CharString>
          <CharString index="117">
            rmoveto
            25 -18 17 -25 -25 -18 -17 -25 -25 18 -17 25 25 18 17 25 vhcurveto
            return
          </CharString>
          <CharString index="118">
            315 -47 callgsubr
            return
          </CharString>
          <CharString index="119">
            39 callgsubr
            128 724 rlineto
            136 callgsubr
            return
          </CharString>
          <CharString index="120">
            264 callgsubr
            19 96 89 133 hhcurveto
            29 hlineto
            70 callgsubr
            return
          </CharString>
          <CharString index="121">
            rrcurveto
            19 callsubr
          </CharString>
          <CharString index="122">
            -100 callsubr
            343 -28 callgsubr
            rrcurveto
            225 callgsubr
            return
          </CharString>
          <CharString index="123">
            -134 -24 -15 callsubr
          </CharString>
          <CharString index="124">
            rmoveto
            153 49 -119 -103 -19 hvcurveto
            -8 -49 -27 -56 -46 -44 353 callsubr
            return
          </CharString>
          <CharString index="125">
            -77 -93 206 callgsubr
            -133 return
          </CharString>
          <CharString index="126">
            -101 -18 63 -73 108 -14 callsubr
          </CharString>
          <CharString index="127">
            14 16 3 hvcurveto
            16 3 return
          </CharString>
          <CharString index="128">
            374 hlineto
            -51 -294 rlineto
            -98 -19 -80 -85 -118 hhcurveto
            447 477 -87 callgsubr
            return
          </CharString>
          <CharString index="129">
            973 986 hmoveto
            -102 callsubr
            -1619 95 callgsubr
            return
          </CharString>
          <CharString index="130">
            rmoveto
            -153 -77 122 167 334 callsubr
            101 40 133 23 -94 callsubr
            507 570 -87 callgsubr
            return
          </CharString>
          <CharString index="131">
            hmoveto
            20 hlineto
            326 668 90 -668 rlineto
            20 hlineto
            313 704 rlineto
            -24 hlineto
            -292 -661 -89 661 rlineto
            -24 hlineto
            -321 -661 -60 661 rlineto
            -24 hlineto
            return
          </CharString>
          <CharString index="132">
            -79 -68 29 86 16 hvcurveto
            99 17 103 18 73 54 callgsubr
            return
          </CharString>
          <CharString index="133">
            505 rmoveto
            -104 -18 145 callsubr
            41 -70 -109 -19 hvcurveto
            -348 199 rmoveto
            324 callgsubr
            54 307 rlineto
            149 hlineto
            162 -307 rlineto
            25 hlineto
            -163 307 137 5 86 68 22 125 rlinecurve
            117 21 -51 82 -160 hhcurveto
            return
          </CharString>
          <CharString index="134">
            -86 callgsubr
            325 hlineto
            76 103 -7 -101 -18 hvcurveto
            -75 -13 -71 -20 -108 235 callsubr
            -131 -23 52 -100 137 hhcurveto
            105 75 62 91 43 hvcurveto
            -42 -240 rlineto
            -181 103 rmoveto
            -129 -45 99 114 23 hvcurveto
            1 7 2 244 callsubr
            111 82 23 88 16 hvcurveto
            108 19 -99 16 -89 hhcurveto
            -263 hlineto
            27 151 rlineto
            650 hlineto
            -65 -370 rlineto
            -138 -24 -82 -113 -137 hhcurveto
            endchar
          </CharString>
          <CharString index="135">
            -77 -82 -77 -32 hvcurveto
            -2 hlineto
            77 -6 -51 82 -127 hhcurveto
            -125 -108 -89 -136 -24 hvcurveto
            -126 -22 77 -92 128 hhcurveto
            117 88 77 84 31 hvcurveto
            return
          </CharString>
          <CharString index="136">
            32 231 362 rmoveto
            -110 -18 -79 -62 -16 -95 rrcurveto
            -130 -23 78 -82 158 hhcurveto
            158 106 74 118 21 hvcurveto
            18 105 -55 72 -104 18 114 23 56 63 13 74 rrcurveto
            113 20 -73 76 -144 hhcurveto
            -144 -99 -68 -101 -18 hvcurveto
            -15 -84 32 -73 106 -23 rrcurveto
            135 331 rmoveto
            124 76 -59 -112 -20 hvcurveto
            -97 -17 -92 -54 -128 hhcurveto
            -128 -72 62 109 19 hvcurveto
            100 18 96 51 124 hhcurveto
            -60 -340 rmoveto
            122 99 -51 -135 -23 hvcurveto
            -114 -20 -105 -60 -137 hhcurveto
            -137 -81 68 126 22 hvcurveto
            121 21 117 45 122 hhcurveto
            endchar
          </CharString>
          <CharString index="137">
            295 rmoveto
            260 callsubr
            20 hlineto
            52 295 290 409 rlineto
            -24 hlineto
            -273 -387 -137 387 rlineto
            -24 hlineto
            return
          </CharString>
          <CharString index="138">
            246 callgsubr
            -26 -148 86 -106 139 -15 -208 -172 77 callgsubr
            rlineto
            125 -75 callsubr
            76 hlineto
            29 167 rlineto
            endchar
          </CharString>
          <CharString index="139">
            -100 callsubr
            241 hlineto
            -94 -29 -66 -75 -18 -97 rrcurveto
            -133 -24 93 -76 113 hhcurveto
            return
          </CharString>
          <CharString index="140">
            34 callsubr
            -33 -91 -16 hvcurveto
            -14 -76 58 -41 40 -11 -92 -32 -60 -86 -16 -90 rrcurveto
            -116 -21 55 -108 149 hhcurveto
            122 81 81 64 335 callsubr
            -49 97 110 20 hvcurveto
            108 20 87 98 126 hhcurveto
            85 48 -43 -43 18 hvcurveto
            -167 -136 rlineto
            23 hlineto
            163 133 rlineto
            52 -17 -54 53 -99 hhcurveto
            -20 -19 -2 -4 -18 hvcurveto
            -60 215 callsubr
            15 74 27 77 hhcurveto
            192 hlineto
            endchar
          </CharString>
          <CharString index="141">
            rmoveto
            28 159 rlineto
            153 -76 callgsubr
            -657 -100 callsubr
            487 358 callgsubr
            -175 hlineto
            -89 -80 return
          </CharString>
          <CharString index="142">
            rmoveto
            -124 -51 -71 callgsubr
            return
          </CharString>
          <CharString index="143">
            rmoveto
            -117 -666 -320 666 rlineto
            -20 hlineto
            -124 -703 rlineto
            20 hlineto
            118 667 319 -667 rlineto
            20 hlineto
            124 703 rlineto
            return
          </CharString>
          <CharString index="144">
            -16 callsubr
            endchar
          </CharString>
          <CharString index="145">
            245 -124 rmoveto
            -101 callsubr
            154 486 -38 callsubr
            return
          </CharString>
          <CharString index="146">
            -153 -82 99 167 31 hvcurveto
            1 return
          </CharString>
          <CharString index="147">
            -18 -103 50 -77 185 callgsubr
            return
          </CharString>
          <CharString index="148">
            -125 -66 78 217 callgsubr
            return
          </CharString>
          <CharString index="149">
            -100 callsubr
            154 hlineto
            -18 -102 -19 -109 54 -45 72 -8 rlinecurve
            -1 -2 -84 -7 -83 -56 -17 -96 rlinecurve
            -121 -21 83 -62 137 hhcurveto
            return
          </CharString>
          <CharString index="150">
            -87 callgsubr
            -652 27 callgsubr
            -18 -97 55 -84 133 -11 -208 -171 77 callgsubr
            127 3 73 70 16 86 rlinecurve
            245 callsubr
            endchar
          </CharString>
          <CharString index="151">
            rmoveto
            96 17 80 -102 callgsubr
            771 390 -87 callgsubr
            return
          </CharString>
          <CharString index="152">
            134 callgsubr
            -98 -77 -61 -94 -17 hvcurveto
            -91 -16 return
          </CharString>
          <CharString index="153">
            315 callgsubr
            -881 -7 callgsubr
            return
          </CharString>
          <CharString index="154">
            -3 14 16 -2 16 hhcurveto
            99 69 59 66 34 hvcurveto
            -50 -284 rlineto
            return
          </CharString>
          <CharString index="155">
            -55 callsubr
            131 107 67 237 callsubr
            -132 -92 -105 -144 hvcurveto
            17 hlineto
            133 82 100 125 98 63 -68 -115 101 callgsubr
            -153 hlineto
            -28 -160 181 callgsubr
          </CharString>
          <CharString index="156">
            -100 callsubr
            333 hlineto
            -48 -270 133 callsubr
            -5 -25 rlineto
            -69 return
          </CharString>
          <CharString index="157">
            47 callsubr
            -441 16 -61 callgsubr
            292 159 -25 callgsubr
            endchar
          </CharString>
          <CharString index="158">
            -37 callsubr
            131 107 67 237 callsubr
            return
          </CharString>
          <CharString index="159">
            120 hhcurveto
            110 73 77 120 20 hvcurveto
            3 1 4 1 4 vhcurveto
            -17 hlineto
            -2 -11 rlineto
            -109 -19 -67 -72 -100 hhcurveto
            -110 return
          </CharString>
          <CharString index="160">
            185 callsubr
            -160 hlineto
            -84 -103 -27 -106 -18 hvcurveto
            return
          </CharString>
          <CharString index="161">
            rmoveto
            16 16 20 callsubr
            -12 14 -16 hhcurveto
            return
          </CharString>
          <CharString index="162">
            38 59 182 rmoveto
            -113 -6 54 -77 124 hhcurveto
            186 90 148 225 39 hvcurveto
            178 32 -10 168 -218 hhcurveto
            -167 -80 -116 -115 -20 hvcurveto
            -150 -27 67 -94 149 hhcurveto
            117 109 65 106 36 hvcurveto
            -291 -39 -109 -106 -152 hhcurveto
            -110 -50 66 106 5 hvcurveto
            196 72 rmoveto
            -129 -70 77 149 27 hvcurveto
            134 23 98 79 123 hhcurveto
            167 43 -121 -113 -20 hvcurveto
            -141 -25 -132 -64 -105 hhcurveto
            endchar
          </CharString>
          <CharString index="163">
            hlineto
            -17 -100 rlineto
            -96 -16 -70 -68 -92 hhcurveto
            -89 -42 154 callsubr
            18 100 rlineto
            -17 hlineto
            -18 -99 rlineto
            -106 -19 53 -75 99 hhcurveto
            99 76 75 106 18 hvcurveto
            14 83 rlineto
            return
          </CharString>
          <CharString index="164">
            hhcurveto
            -110 -69 73 107 19 hvcurveto
            300 callgsubr
            -21 77 -79 119 hhcurveto
            120 92 return
          </CharString>
          <CharString index="165">
            hlineto
            -12 callgsubr
            return
          </CharString>
          <CharString index="166">
            hlineto
            20 112 121 callgsubr
            return
          </CharString>
          <CharString index="167">
            -31 95 516 rmoveto
            20 hlineto
            129 29 112 48 97 hhcurveto
            118 54 -69 -97 -17 hvcurveto
            -93 -17 -84 -58 -176 hhcurveto
            -18 hlineto
            -3 -19 rlineto
            17 hlineto
            162 91 -68 -130 -23 hvcurveto
            -81 -14 -68 -65 -119 hhcurveto
            -149 -60 79 105 -1 hvcurveto
            -20 hlineto
            -129 -1 84 -75 144 hhcurveto
            137 72 75 91 15 hvcurveto
            22 124 -75 57 -102 24 1 6 rcurveline
            137 11 56 76 12 70 rrcurveto
            103 18 -58 81 -132 hhcurveto
            -134 -103 -76 -119 -24 hvcurveto
            endchar
          </CharString>
          <CharString index="168">
            -80 101 164 36 hvcurveto
            94 hlineto
            120 128 40 146 25 hvcurveto
            93 16 -52 75 -101 hhcurveto
            -23 -22 364 callgsubr
            708 hlineto
            -67 -37 -37 -73 -89 vvcurveto
            17 hlineto
            121 70 87 118 95 42 -68 -84 -15 vhcurveto
            -142 -25 -129 -28 -100 hhcurveto
            -415 hlineto
            -59 callsubr
            240 hlineto
            -167 -38 83 -115 173 hhcurveto
            return
          </CharString>
          <CharString index="169">
            183 callgsubr
            18 104 rlineto
            return
          </CharString>
          <CharString index="170">
            rmoveto
            -64 callsubr
            return
          </CharString>
          <CharString index="171">
            164 548 hmoveto
            35 callgsubr
            -83 101 362 callgsubr
            39 190 callsubr
            93 17 -53 75 -104 hhcurveto
            -124 -80 -94 -130 hvcurveto
            159 callgsubr
            -28 -100 hhcurveto
            -108 hlineto
            -3 -12 -3 -12 -2 -11 rrcurveto
            -157 -29 91 -105 163 hhcurveto
            return
          </CharString>
          <CharString index="172">
            rmoveto
            -56 -10 35 -34 49 hhcurveto
            49 47 34 56 10 hvcurveto
            56 10 -35 34 -49 hhcurveto
            -49 -47 -34 -56 -10 hvcurveto
            160 hmoveto
            -45 -8 -35 -27 -40 hhcurveto
            -40 -25 27 45 8 hvcurveto
            45 8 35 27 40 hhcurveto
            40 25 -27 -45 -8 hvcurveto
            endchar
          </CharString>
          <CharString index="173">
            81 116 20 hvcurveto
            return
          </CharString>
          <CharString index="174">
            265 callsubr
            -20 -118 -43 -76 hhcurveto
            -96 -70 73 97 19 hvcurveto
            103 20 95 54 133 hhcurveto
            131 hlineto
            257 callgsubr
            -301 -808 rmoveto
            -87 -67 59 104 18 hvcurveto
            6 35 16 31 24 24 240 -180 rcurveline
            -41 -35 -52 -32 -63 hhcurveto
            46 313 rmoveto
            88 6 74 38 34 53 -43 -244 rcurveline
            -1 hlineto
            -4 -25 -14 -30 -20 -27 -238 180 rcurveline
            32 28 44 18 48 3 rrcurveto
            endchar
          </CharString>
          <CharString index="175">
            448 199 -95 callsubr
            return
          </CharString>
          <CharString index="176">
            -83 -141 hhcurveto
            -103 -81 48 104 19 hvcurveto
            77 13 64 62 callgsubr
            return
          </CharString>
          <CharString index="177">
            -62 -353 rlineto
            17 hlineto
            return
          </CharString>
          <CharString index="178">
            12 22 7 24 4 24 rrcurveto
            88 15 -30 69 -85 hhcurveto
            -88 -44 -68 -55 -18 hvcurveto
            -2 hlineto
            55 3 -21 68 -81 hhcurveto
            -88 -60 -66 -91 -16 hvcurveto
            -93 -16 39 -74 104 hhcurveto
            8 11 1 1 5 hvcurveto
            3 15 rlineto
            -1 -5 -10 -1 -7 hhcurveto
            -95 -36 67 85 15 hvcurveto
            81 14 51 61 80 hhcurveto
            75 30 -66 -102 -20 hvcurveto
            -1 -5 rlineto
            16 hlineto
            1 5 rlineto
            101 20 49 67 79 hhcurveto
            79 24 -63 -79 -14 hvcurveto
            -3 -19 -6 -19 -7 -17 return
          </CharString>
          <CharString index="179">
            58 329 rlineto
            154 31 114 47 95 hhcurveto
            9 hlineto
            4 22 rlineto
            -120 -79 -49 -93 -39 hvcurveto
            23 130 rlineto
            -20 hlineto
            -96 -540 rlineto
            return
          </CharString>
          <CharString index="180">
            -61 -95 -78 -25 hvcurveto
            -2 hlineto
            77 4 -33 96 -112 hhcurveto
            -125 -79 -93 206 callgsubr
            -133 -23 54 -104 147 hhcurveto
            11 11 1 1 12 hvcurveto
            166 callsubr
            -12 -10 -1 -10 hhcurveto
            -138 -50 96 124 22 hvcurveto
            115 20 74 88 301 callgsubr
            149 19 83 92 113 hhcurveto
            111 38 -92 -111 -20 hvcurveto
            -5 -30 return
          </CharString>
          <CharString index="181">
            275 247 240 callgsubr
            return
          </CharString>
          <CharString index="182">
            704 rmoveto
            -394 hlineto
            -3 -20 rlineto
            373 hlineto
            -504 -665 -3 -19 rlineto
            417 hlineto
            3 19 rlineto
            -395 hlineto
            503 665 rlineto
            return
          </CharString>
          <CharString index="183">
            rmoveto
            -16 hlineto
            -58 -10 -60 -71 -108 hhcurveto
            -109 -33 71 58 10 hvcurveto
            -16 hlineto
            -64 -12 return
          </CharString>
          <CharString index="184">
            -12 callgsubr
            -70 -397 rlineto
            return
          </CharString>
          <CharString index="185">
            136 callsubr
            -18 hvcurveto
            return
          </CharString>
          <CharString index="186">
            hhcurveto
            140 104 79 111 38 hvcurveto
            return
          </CharString>
          <CharString index="187">
            704 rmoveto
            -185 hlineto
            -60 -343 rlineto
            -115 hlineto
            -4 -18 rlineto
            115 hlineto
            -60 -343 104 callgsubr
            209 callgsubr
            233 217 callsubr
            -233 hlineto
            57 325 270 callgsubr
            endchar
          </CharString>
          <CharString index="188">
            148 callgsubr
            -12 hlineto
            return
          </CharString>
          <CharString index="189">
            rmoveto
            -84 178 rlineto
            -18 hlineto
            83 -178 rlineto
            return
          </CharString>
          <CharString index="190">
            rmoveto
            20 hlineto
            41 16 35 27 55 hhcurveto
            52 29 -31 -45 -8 hvcurveto
            -49 -9 -42 -28 -52 hhcurveto
            -64 244 callgsubr
            61 hlineto
            53 35 -27 -50 -9 hvcurveto
            -45 -7 -38 -29 -58 hhcurveto
            -47 -35 17 62 4 hvcurveto
            -20 hlineto
            -66 -3 33 -31 65 hhcurveto
            75 44 47 45 7 hvcurveto
            9 46 -23 29 -38 11 rrcurveto
            2 vlineto
            47 12 28 32 7 40 rrcurveto
            58 10 -39 38 -60 hhcurveto
            -68 -44 -39 -49 -18 hvcurveto
            endchar
          </CharString>
          <CharString index="191">
            -59 rmoveto
            -7 -38 rlineto
            31 hlineto
            -1 -7 rlineto
            -33 -6 -14 -21 -32 hhcurveto
            -4 -18 rlineto
            36 32 15 71 13 hvcurveto
            1 9 1 13 1 9 rrcurveto
            return
          </CharString>
          <CharString index="192">
            -92 callgsubr
            106 return
          </CharString>
          <CharString index="193">
            21 122 rcurveline
            208 hlineto
            5 5 0 6 hhcurveto
            364 callsubr
            79 -134 161 -69 callgsubr
            return
          </CharString>
          <CharString index="194">
            16 144 704 rmoveto
            -66 -371 rlineto
            18 hlineto
            68 52 94 42 83 hhcurveto
            136 60 -89 -138 -24 hvcurveto
            -116 -20 -79 -87 -138 hhcurveto
            -116 -80 60 119 -2 hvcurveto
            -20 hlineto
            -124 -2 82 -75 135 hhcurveto
            159 81 109 350 callsubr
            126 23 -46 119 -166 hhcurveto
            -89 -87 -39 -56 -48 hvcurveto
            57 320 rlineto
            402 190 callgsubr
            endchar
          </CharString>
          <CharString index="195">
            -66 rrcurveto
            183 callgsubr
            return
          </CharString>
          <CharString index="196">
            107 491 -52 callgsubr
            -753 49 callsubr
            -13 24 -75 94 hhcurveto
            93 44 67 74 13 hvcurveto
            48 270 rlineto
            224 hlineto
            -69 -391 -413 -353 352 callsubr
            return
          </CharString>
          <CharString index="197">
            -100 callsubr
            490 74 callgsubr
            272 callsubr
            return
          </CharString>
          <CharString index="198">
            rmoveto
            309 217 callsubr
            -309 hlineto
            endchar
          </CharString>
          <CharString index="199">
            -18 357 711 rmoveto
            187 10 -154 -203 -36 hvcurveto
            -205 -36 -64 -156 -187 hhcurveto
            -188 -9 156 205 36 hvcurveto
            203 36 63 154 188 hhcurveto
            -3 -18 rmoveto
            -173 -57 -146 -193 -34 hvcurveto
            -195 -34 5 -148 173 hhcurveto
            173 57 148 195 34 hvcurveto
            193 34 -5 146 -173 hhcurveto
            endchar
          </CharString>
          <CharString index="200">
            -16 callsubr
            162 hlineto
            return
          </CharString>
          <CharString index="201">
            79 139 24 hvcurveto
            return
          </CharString>
          <CharString index="202">
            198 callgsubr
            -338 hlineto
            -59 callsubr
            253 203 callgsubr
            -171 -31 89 -126 158 -69 callgsubr
            endchar
          </CharString>
          <CharString index="203">
            80 callgsubr
            105 41 -10 -198 91 hvcurveto
            -160 238 callgsubr
            return
          </CharString>
          <CharString index="204">
            hlineto
            -26 -151 rlineto
            -59 hlineto
            -164 -149 -86 -193 -34 hvcurveto
            return
          </CharString>
          <CharString index="205">
            18 rlineto
            -294 216 callsubr
            return
          </CharString>
          <CharString index="206">
            59 290 247 rmoveto
            -118 -63 312 callgsubr
            -331 rlineto
            -73 -34 -69 -53 -89 hhcurveto
            213 191 rmoveto
            -3 -17 -5 -17 -6 -16 -309 336 rcurveline
            373 hlineto
            239 callsubr
            229 286 -87 callgsubr
            -705 -82 callgsubr
            -27 73 -89 123 hhcurveto
            return
          </CharString>
          <CharString index="207">
            10 -14 226 callsubr
            return
          </CharString>
          <CharString index="208">
            hlineto
            -70 -396 rlineto
            -103 -21 -103 -94 170 callsubr
            20 95 253 callsubr
            242 hlineto
            return
          </CharString>
          <CharString index="209">
            82 callgsubr
            127 724 rlineto
            162 hlineto
            return
          </CharString>
          <CharString index="210">
            104 rmoveto
            -64 callgsubr
            return
          </CharString>
          <CharString index="211">
            rlineto
            19 hlineto
            76 428 rlineto
            -105 9 75 -76 128 hhcurveto
            155 126 105 172 31 hvcurveto
            172 30 -89 105 -155 hhcurveto
            -128 -102 -76 -105 -46 hvcurveto
            -17 -96 rmoveto
            156 27 121 103 141 hhcurveto
            148 78 -98 -161 -28 hvcurveto
            -161 -29 -112 -98 -148 hhcurveto
            -141 -85 103 156 28 hvcurveto
            endchar
          </CharString>
          <CharString index="212">
            rrcurveto
            106 callsubr
          </CharString>
          <CharString index="213">
            -91 -16 72 -41 86 -5 callsubr
          </CharString>
          <CharString index="214">
            hlineto
            -57 -24 -41 -49 120 callsubr
            return
          </CharString>
          <CharString index="215">
            149 callsubr
            21 hlineto
            return
          </CharString>
          <CharString index="216">
            -6 21 -1 25 4 24 rrcurveto
            83 15 54 43 288 callgsubr
            -12 hvcurveto
            -2 -10 -1 -9 -11 vvcurveto
            207 -76 -46 9 -102 -10 callgsubr
            return
          </CharString>
          <CharString index="217">
            -6 21 -1 25 4 24 rrcurveto
            83 15 50 43 64 hhcurveto
            54 36 -38 -59 -14 336 callsubr
            -12 hvcurveto
            -2 -11 -1 -10 -10 vvcurveto
            208 -76 -46 9 -102 -10 callgsubr
            return
          </CharString>
          <CharString index="218">
            214 callsubr
            -130 -22 -90 296 callsubr
            -33 -194 rlineto
            -128 -22 54 -86 52 callsubr
            -45 66 callsubr
            30 179 rlineto
            return
          </CharString>
          <CharString index="219">
            78 callsubr
            -9 -48 -27 -57 -45 -43 183 callsubr
            return
          </CharString>
          <CharString index="220">
            251 callsubr
            69 126 144 hhcurveto
            103 67 83 callgsubr
            -68 callsubr
            endchar
          </CharString>
          <CharString index="221">
            105 callgsubr
            611 hlineto
            -49 -281 rlineto
            75 -12 -54 66 -114 hhcurveto
            -105 -99 -65 -110 -40 hvcurveto
            -326 -32 callsubr
            rrcurveto
            return
          </CharString>
          <CharString index="222">
            -84 -13 -81 -64 -18 -102 rrcurveto
            -116 -21 73 -68 107 hhcurveto
            98 68 53 61 34 hvcurveto
            -32 -181 rlineto
            16 hlineto
            83 465 60 36 37 59 12 70 rlinecurve
            -17 hlineto
            -112 -20 -88 -79 -152 hhcurveto
            -150 -66 72 101 18 hvcurveto
            113 20 101 52 119 hhcurveto
            118 358 callsubr
            endchar
          </CharString>
          <CharString index="223">
            rmoveto
            276 callsubr
            -79 53 102 17 hvcurveto
            75 13 64 62 -51 callgsubr
            return
          </CharString>
          <CharString index="224">
            rmoveto
            14 2 -8 10 -14 hhcurveto
            -15 -11 -10 -14 -3 hvcurveto
            -14 -3 9 163 callgsubr
            return
          </CharString>
          <CharString index="225">
            rcurveline
            25 hlineto
            108 callsubr
            return
          </CharString>
          <CharString index="226">
            -107 -82 69 124 22 hvcurveto
            112 return
          </CharString>
          <CharString index="227">
            -12 88 callsubr
            return
          </CharString>
          <CharString index="228">
            -149 -27 -103 173 callgsubr
            return
          </CharString>
          <CharString index="229">
            rmoveto
            188 callgsubr
            -479 127 callgsubr
            269 hlineto
            -40 -26 -30 -46 -10 -60 rrcurveto
            237 -267 rmoveto
            18 104 rlineto
            return
          </CharString>
          <CharString index="230">
            hhcurveto
            112 100 69 119 43 hvcurveto
            -10 25 28 -5 31 hhcurveto
            91 81 48 64 33 hvcurveto
            -72 callsubr
            147 25 128 37 callgsubr
            endchar
          </CharString>
          <CharString index="231">
            -110 -20 90 -61 109 hhcurveto
            131 103 84 130 44 hvcurveto
            -119 9 81 -73 331 callsubr
            return
          </CharString>
          <CharString index="232">
            -146 -26 99 -87 130 129 callsubr
            return
          </CharString>
          <CharString index="233">
            hlineto
            -25 -136 rlineto
            -104 hlineto
            return
          </CharString>
          <CharString index="234">
            -15 -85 48 -71 89 -14 -62 -14 -68 -55 -13 -86 rrcurveto
            -105 -16 71 -65 94 hhcurveto
            74 69 39 64 316 callgsubr
            -27 -105 -43 -79 hhcurveto
            -108 -60 65 94 18 hvcurveto
            109 21 94 59 133 hhcurveto
            131 hlineto
            257 callgsubr
            return
          </CharString>
          <CharString index="235">
            rmoveto
            -80 -455 rlineto
            -280 hlineto
            707 474 rmoveto
            3 18 rlineto
            -344 hlineto
            -557 -704 rlineto
            23 hlineto
            154 194 rlineto
            290 hlineto
            -34 -194 rlineto
            344 190 callgsubr
            -324 216 callsubr
            294 hlineto
            4 98 callsubr
            endchar
          </CharString>
          <CharString index="236">
            hhcurveto
            120 84 70 78 40 hvcurveto
            -48 -268 rlineto
            return
          </CharString>
          <CharString index="237">
            hmoveto
            20 hlineto
            124 704 rlineto
            -20 hlineto
            return
          </CharString>
          <CharString index="238">
            704 rmoveto
            -185 hlineto
            -124 -704 104 callgsubr
            118 668 270 callgsubr
            return
          </CharString>
          <CharString index="239">
            10 58 -48 87 -31 callgsubr
            -610 -390 253 callgsubr
          </CharString>
          <CharString index="240">
            rlineto
            -61 -11 -35 -64 -87 hhcurveto
            -83 -17 65 57 11 hvcurveto
            6 31 rlineto
            -17 hlineto
            return
          </CharString>
          <CharString index="241">
            203 callsubr
            274 callgsubr
            return
          </CharString>
          <CharString index="242">
            59 callsubr
            -82 return
          </CharString>
          <CharString index="243">
            rmoveto
            153 48 -119 -103 return
          </CharString>
          <CharString index="244">
            278 callgsubr
            95 20 return
          </CharString>
          <CharString index="245">
            -147 140 callgsubr
          </CharString>
          <CharString index="246">
            -47 -266 rlineto
            return
          </CharString>
          <CharString index="247">
            147 callsubr
            253 203 callgsubr
            -171 -31 89 -126 158 -69 callgsubr
            endchar
          </CharString>
          <CharString index="248">
            -162 vlineto
            321 callgsubr
          </CharString>
          <CharString index="249">
            rmoveto
            -334 hlineto
            245 439 rlineto
            endchar
          </CharString>
          <CharString index="250">
            252 callgsubr
            -42 54 101 17 hvcurveto
            19 102 rlineto
            441 hlineto
            -64 -363 rlineto
            -134 -25 -127 -95 -137 hhcurveto
            531 592 -87 callgsubr
            return
          </CharString>
          <CharString index="251">
            rlineto
            97 callgsubr
            return
          </CharString>
          <CharString index="252">
            -67 -73 326 callgsubr
            63 356 327 callsubr
            return
          </CharString>
          <CharString index="253">
            rmoveto
            -83 -104 rlineto
            20 hlineto
            86 104 rlineto
            -140 hmoveto
            -78 -104 rlineto
            20 hlineto
            81 104 rlineto
            endchar
          </CharString>
          <CharString index="254">
            rrcurveto
            -54 callsubr
            return
          </CharString>
          <CharString index="255">
            -66 rrcurveto
            -91 -16 55 -63 91 hhcurveto
            92 return
          </CharString>
          <CharString index="256">
            203 169 144 -169 rlineto
            return
          </CharString>
          <CharString index="257">
            -13 -37 -23 -37 -32 -31 353 callsubr
            29 27 -4 -8 21 hvcurveto
            2 16 rlineto
            9 -23 -27 3 -28 -23 callgsubr
            106 84 57 79 46 hvcurveto
            return
          </CharString>
          <CharString index="258">
            hhcurveto
            111 77 65 74 38 hvcurveto
            84 callgsubr
          </CharString>
          <CharString index="259">
            274 callsubr
            79 callgsubr
            return
          </CharString>
          <CharString index="260">
            242 callsubr
            -36 -205 rlineto
            -127 -20 51 -87 106 hhcurveto
            110 44 89 109 16 hvcurveto
            -17 hlineto
            -102 -15 -40 -80 -97 hhcurveto
            -100 -39 81 300 callsubr
            166 callgsubr
            return
          </CharString>
          <CharString index="261">
            68 96 17 hvcurveto
            return
          </CharString>
          <CharString index="262">
            19 693 724 315 callgsubr
            -665 hlineto
            -2 -16 rlineto
            474 hlineto
            -24 328 callgsubr
            -141 -105 return
          </CharString>
          <CharString index="263">
            hvcurveto
            -243 -185 rlineto
            23 hlineto
            return
          </CharString>
          <CharString index="264">
            -64 734 rmoveto
            10 52 rlineto
            86 17 43 77 96 hhcurveto
            96 18 -77 -86 -16 hvcurveto
            -9 -46 12 callsubr
            return
          </CharString>
          <CharString index="265">
            95 -1 rlinecurve
            177 callsubr
            return
          </CharString>
          <CharString index="266">
            247 35 callsubr
            return
          </CharString>
          <CharString index="267">
            24 138 -68 63 -81 4 29 163 rcurveline
            return
          </CharString>
          <CharString index="268">
            -207 199 callsubr
            return
          </CharString>
          <CharString index="269">
            hmoveto
            20 286 callsubr
            -20 hlineto
            return
          </CharString>
          <CharString index="270">
            -3 15 16 -2 18 hhcurveto
            return
          </CharString>
          <CharString index="271">
            rmoveto
            14 2 -8 100 callsubr
            -2 8 229 callsubr
          </CharString>
          <CharString index="272">
            rmoveto
            14 14 10 17 3 hvcurveto
            17 3 -10 10 -14 hhcurveto
            -14 -14 -10 -17 -3 hvcurveto
            -17 -3 10 -10 14 hhcurveto
            endchar
          </CharString>
          <CharString index="273">
            3 17 rlineto
            -1 return
          </CharString>
          <CharString index="274">
            rmoveto
            -79 -49 55 83 15 hvcurveto
            73 15 69 46 85 hhcurveto
            122 hlineto
            -15 -85 272 callgsubr
            return
          </CharString>
          <CharString index="275">
            hlineto
            -19 -102 -19 -109 54 -45 72 341 callsubr
            -85 -7 -83 -56 -17 -96 rrcurveto
            -121 -21 87 -62 133 hhcurveto
            120 105 64 96 52 hvcurveto
            -49 -276 193 callsubr
          </CharString>
          <CharString index="276">
            hhcurveto
            -129 -120 338 callsubr
            91 -86 132 hhcurveto
            return
          </CharString>
          <CharString index="277">
            -120 264 callgsubr
            return
          </CharString>
          <CharString index="278">
            186 callgsubr
            -167 hlineto
            return
          </CharString>
          <CharString index="279">
            hlineto
            -15 -89 rlineto
            return
          </CharString>
          <CharString index="280">
            -92 callsubr
            433 267 callsubr
            49 279 265 callgsubr
            return
          </CharString>
          <CharString index="281">
            hlineto
            -29 -165 -143 -4 -121 -98 -25 -142 rlinecurve
            return
          </CharString>
          <CharString index="282">
            hlineto
            -49 -279 rlineto
            -122 hlineto
            -98 -78 -61 -94 -16 hvcurveto
            -6 callgsubr
          </CharString>
          <CharString index="283">
            737 rmoveto
            266 -89 -45 11 -111 -10 callgsubr
            106 45 -6 -115 105 hvcurveto
            return
          </CharString>
          <CharString index="284">
            107 93 callgsubr
            return
          </CharString>
          <CharString index="285">
            70 hhcurveto
            60 32 -40 -57 -6 hvcurveto
            16 hlineto
            67 8 -37 46 -70 hhcurveto
            -89 return
          </CharString>
          <CharString index="286">
            184 callgsubr
            160 callsubr
            endchar
          </CharString>
          <CharString index="287">
            -51 callgsubr
            -21 -19 -3 -6 -18 hvcurveto
            return
          </CharString>
          <CharString index="288">
            hhcurveto
            -204 -169 rlineto
            23 hlineto
            149 callsubr
            23 hlineto
            -148 172 return
          </CharString>
          <CharString index="289">
            -77 -120 hhcurveto
            -104 hlineto
            55 -12 -51 58 -111 hhcurveto
            return
          </CharString>
          <CharString index="290">
            290 callgsubr
            275 callgsubr
            return
          </CharString>
          <CharString index="291">
            -15 -21 -32 hhcurveto
            -3 -18 rlineto
            return
          </CharString>
          <CharString index="292">
            hlineto
            -29 -162 rlineto
            return
          </CharString>
          <CharString index="293">
            hhcurveto
            111 40 return
          </CharString>
          <CharString index="294">
            rlineto
            75 14 42 41 55 hhcurveto
            53 29 -36 -61 -14 hvcurveto
            16 hlineto
            71 return
          </CharString>
          <CharString index="295">
            -16 hlineto
            -131 -22 -119 -85 -125 hhcurveto
            39 callsubr
            4 1 244 callsubr
            3 hlineto
            128 284 callgsubr
            endchar
          </CharString>
          <CharString index="296">
            rmoveto
            196 callgsubr
            return
          </CharString>
          <CharString index="297">
            147 26 hvcurveto
            return
          </CharString>
          <CharString index="298">
            218 callsubr
            -19 -18 361 callsubr
            return
          </CharString>
          <CharString index="299">
            hlineto
            -2 -15 rlineto
            240 hlineto
            -97 -22 -90 -77 -24 -143 rrcurveto
            -156 -26 89 -88 154 225 callsubr
            -149 -78 81 144 24 hvcurveto
            178 return
          </CharString>
          <CharString index="300">
            -56 callsubr
            endchar
          </CharString>
          <CharString index="301">
            -100 -70 -69 -84 -15 hvcurveto
            -105 -19 68 -45 83 hhcurveto
            21 26 5 5 12 hvcurveto
            -87 callsubr
            -5 -14 -23 -5 -22 hhcurveto
            -75 -60 37 97 17 hvcurveto
            75 13 63 62 94 hhcurveto
            return
          </CharString>
          <CharString index="302">
            hlineto
            -40 -26 -30 -46 -10 -60 rrcurveto
            232 callsubr
            return
          </CharString>
          <CharString index="303">
            -53 callsubr
            -127 -118 341 callgsubr
            return
          </CharString>
          <CharString index="304">
            hhcurveto
            88 26 -68 -108 -19 hvcurveto
            -19 -111 rlineto
            return
          </CharString>
          <CharString index="305">
            -92 hhcurveto
            235 callgsubr
            return
          </CharString>
          <CharString index="306">
            -171 325 callgsubr
            return
          </CharString>
          <CharString index="307" raw="1">
            9b05fb47 06f7980a 0b 
          </CharString>
          <CharString index="308">
            210 -7 callsubr
            return
          </CharString>
          <CharString index="309">
            278 callsubr
            250 271 callgsubr
            endchar
          </CharString>
          <CharString index="310">
            153 callgsubr
            -352 hlineto
            return
          </CharString>
          <CharString index="311">
            15 84 rlineto
            220 hlineto
            -25 -139 -411 -350 rlineto
            26 hlineto
            381 325 return
          </CharString>
          <CharString index="312">
            49 279 rlineto
            return
          </CharString>
          <CharString index="313">
            49 rmoveto
            -159 -122 67 135 24 hvcurveto
            91 16 77 76 145 hhcurveto
            24 314 callsubr
            -24 227 callsubr
            18 hvcurveto
            24 135 rlineto
            return
          </CharString>
          <CharString index="314">
            222 callgsubr
            endchar
          </CharString>
          <CharString index="315">
            14 -45 38 12 67 rrcurveto
            return
          </CharString>
          <CharString index="316">
            -100 callsubr
            487 358 callgsubr
            -175 hlineto
            -89 -80 -33 -91 -16 hvcurveto
            -14 -78 58 -38 38 -12 -90 -32 -59 -77 -15 -89 rrcurveto
            -110 return
          </CharString>
          <CharString index="317">
            334 44 callsubr
            return
          </CharString>
          <CharString index="318">
            -100 callsubr
            542 -100 callgsubr
            return
          </CharString>
          <CharString index="319">
            356 callgsubr
            -79 -446 rlineto
            -155 -28 62 -104 160 hhcurveto
            return
          </CharString>
          <CharString index="320">
            336 callgsubr
            2 9 1 13 9 vvcurveto
            return
          </CharString>
          <CharString index="321">
            297 callsubr
            -23 -133 rlineto
            return
          </CharString>
          <CharString index="322">
            208 callsubr
            82 return
          </CharString>
          <CharString index="323">
            hlineto
            209 callgsubr
            return
          </CharString>
          <CharString index="324">
            hlineto
            4 18 rlineto
            return
          </CharString>
          <CharString index="325">
            333 callsubr
            -179 hlineto
            -52 -295 rlineto
            -221 59 callsubr
            return
          </CharString>
          <CharString index="326">
            -109 -20 87 -62 112 hhcurveto
            35 34 6 11 32 hvcurveto
            -251 -191 rlineto
            25 hlineto
            301 230 37 26 31 36 22 41 rlinecurve
            endchar
          </CharString>
          <CharString index="327">
            740 rmoveto
            286 callgsubr
            -5 -29 rlineto
            -29 -5 -13 -16 -35 hhcurveto
            -4 -20 rlineto
            40 30 15 63 11 hvcurveto
            3 18 3 22 2 29 rrcurveto
            return
          </CharString>
          <CharString index="328">
            hhcurveto
            115 68 266 callsubr
            23 vlineto
            405 345 -61 -345 193 callsubr
          </CharString>
          <CharString index="329">
            313 callsubr
            42 -65 -109 -19 hvcurveto
            -104 -18 -66 -68 -151 hhcurveto
            return
          </CharString>
          <CharString index="330">
            137 175 -75 175 rlineto
            -28 hlineto
            79 -175 -141 -175 rlineto
            return
          </CharString>
          <CharString index="331">
            319 callsubr
            -10 -6 vvcurveto
            17 hlineto
            6 1 9 1 return
          </CharString>
          <CharString index="332">
            268 callgsubr
            -24 hlineto
            return
          </CharString>
          <CharString index="333">
            hhcurveto
            -15 -36 callgsubr
            return
          </CharString>
          <CharString index="334">
            hlineto
            -126 -42 54 101 return
          </CharString>
          <CharString index="335">
            359 callgsubr
            134 99 67 124 53 hvcurveto
            -116 1 84 -66 114 60 callgsubr
            return
          </CharString>
          <CharString index="336">
            163 callgsubr
            endchar
          </CharString>
          <CharString index="337">
            511 624 hmoveto
            256 callsubr
            return
          </CharString>
          <CharString index="338">
            -180 rmoveto
            39 callsubr
            4 1 244 callsubr
            3 hlineto
            128 284 callgsubr
            return
          </CharString>
          <CharString index="339">
            47 callgsubr
            61 51 72 48 callgsubr
            return
          </CharString>
          <CharString index="340">
            -77 -173 -31 hvcurveto
            -85 callsubr
            return
          </CharString>
          <CharString index="341">
            -17 hlineto
            -108 -16 -64 -84 -106 hhcurveto
            -113 -44 66 callsubr
            return
          </CharString>
          <CharString index="342">
            hhcurveto
            -12 hlineto
            -3 -12 -3 -12 -2 -12 rrcurveto
            return
          </CharString>
          <CharString index="343">
            261 callgsubr
            -36 -41 -55 -24 -70 hhcurveto
            return
          </CharString>
          <CharString index="344">
            130 24 hvcurveto
            122 23 -69 81 -111 hhcurveto
            return
          </CharString>
          <CharString index="345">
            hlineto
            23 callgsubr
            80 return
          </CharString>
          <CharString index="346">
            -50 -286 rlineto
            return
          </CharString>
          <CharString index="347">
            280 callgsubr
            701 269 -87 callgsubr
            return
          </CharString>
          <CharString index="348">
            rmoveto
            -86 -60 57 95 14 hvcurveto
            13 88 80 58 78 5 97 7 66 37 34 56 -44 -254 rcurveline
            -71 -18 -71 -78 -103 hhcurveto
            return
          </CharString>
          <CharString index="349">
            -3 callgsubr
            -110 hlineto
            return
          </CharString>
          <CharString index="350">
            -6 299 callsubr
            return
          </CharString>
          <CharString index="351">
            7 2 8 rrcurveto
            return
          </CharString>
          <CharString index="352">
            122 22 -98 42 -99 hhcurveto
            -45 hlineto
            -77 -67 29 86 15 hvcurveto
            99 18 97 18 76 hhcurveto
            161 hlineto
            32 178 rlineto
            return
          </CharString>
          <CharString index="353">
            hlineto
            -69 -27 -48 -58 -13 -76 147 callsubr
            return
          </CharString>
          <CharString index="354">
            -102 144 hhcurveto
            125 77 81 64 30 hvcurveto
            -17 hlineto
            -58 -27 -74 -70 -113 hhcurveto
            -136 -50 91 104 19 hvcurveto
            103 return
          </CharString>
          <CharString index="355">
            -114 52 704 rmoveto
            -3 -18 rlineto
            433 hlineto
            -405 -686 rlineto
            23 hlineto
            401 686 3 18 rlineto
            endchar
          </CharString>
          <CharString index="356">
            172 callsubr
            -149 -26 -104 return
          </CharString>
          <CharString index="357">
            -100 callsubr
            endchar
          </CharString>
          <CharString index="358">
            258 callgsubr
            84 16 return
          </CharString>
          <CharString index="359">
            303 callsubr
            -11 -10 -14 -3 hvcurveto
            -14 -2 8 229 callsubr
          </CharString>
          <CharString index="360">
            283 callgsubr
            -357 -100 callsubr
            return
          </CharString>
          <CharString index="361">
            468 105 callgsubr
            return
          </CharString>
          <CharString index="362">
            -82 132 hhcurveto
            116 return
          </CharString>
          <CharString index="363">
            -45 callsubr
            253 hlineto
            -127 -724 119 callgsubr
            return
          </CharString>
          <CharString index="364">
            hlineto
            -74 -39 -46 -83 -102 vvcurveto
            17 hlineto
            133 82 100 125 98 63 366 callgsubr
            vhcurveto
            -119 -21 return
          </CharString>
          <CharString index="365">
            78 hmoveto
            128 724 rlineto
            136 callgsubr
            -9 22 -2 29 6 29 rrcurveto
            82 17 return
          </CharString>
          <CharString index="366">
            hlineto
            -98 -77 -61 -94 -17 hvcurveto
            -91 -16 55 -63 91 hhcurveto
            92 return
          </CharString>
          <CharString index="367">
            -52 -295 rlineto
            return
          </CharString>
          <CharString index="368">
            rmoveto
            33 27 23 30 16 32 -48 -269 rcurveline
            17 hlineto
            -67 callgsubr
            return
          </CharString>
          <CharString index="369">
            137 24 111 77 120 hhcurveto
            114 64 -67 -87 12 hvcurveto
            -435 -371 rlineto
            -2 23 vlineto
            return
          </CharString>
          <CharString index="370">
            hvcurveto
            16 hlineto
            69 15 -40 44 -64 hhcurveto
            -82 return
          </CharString>
          <CharString index="371">
            hlineto
            -65 -369 rlineto
            0 vlineto
            -143 -25 return
          </CharString>
          <CharString index="372">
            16 hlineto
            99 561 rlineto
            -15 hlineto
            -113 return
          </CharString>
          <CharString index="373">
            -68 -89 12 hvcurveto
            -432 -368 rlineto
            -2 return
          </CharString>
          <CharString index="374">
            293 rmoveto
            -232 hlineto
            return
          </CharString>
          <CharString index="375">
            hvcurveto
            1 4 1 return
          </CharString>
          <CharString index="376" raw="1">
            c9de1be6 b74f276f 1f9c06f5 a85ad126
            1b767888 85791f0b  
          </CharString>
          <CharString index="377">
            hlineto
            -58 -24 -42 -50 302 callgsubr
          </CharString>
          <CharString index="378">
            133 hhcurveto
            29 -76 callgsubr
            return
          </CharString>
          <CharString index="379">
            -134 -24 299 callgsubr
            return
          </CharString>
          <CharString index="380">
            -100 callsubr
            366 hlineto
            return
          </CharString>
          <CharString index="381">
            hlineto
            -47 -27 -32 -48 -10 -55 return
          </CharString>
          <CharString index="382">
            -87 callgsubr
            -5 -16 -26 -5 -25 hhcurveto
            -73 -65 51 91 15 hvcurveto
            75 12 64 54 94 hhcurveto
            return
          </CharString>
          <CharString index="383">
            2 16 rlineto
            -179 hlineto
            -1 -8 -65 -372 rlineto
            -133 -24 -124 -95 -131 hhcurveto
            -103 return
          </CharString>
          <CharString index="384">
            -32 -180 rlineto
            return
          </CharString>
          <CharString index="385">
            hlineto
            -57 -325 rlineto
            -106 -20 53 -75 102 53 callgsubr
            return
          </CharString>
          <CharString index="386">
            -53 callsubr
            -75 -72 -31 -54 -52 hvcurveto
            -158 hlineto
            return
          </CharString>
          <CharString index="387">
            hlineto
            287 callsubr
            return
          </CharString>
          <CharString index="388">
            -30 289 callgsubr
          </CharString>
          <CharString index="389">
            -130 -742 rlineto
            17 hlineto
            130 742 rlineto
            return
          </CharString>
          <CharString index="390">
            120 callgsubr
            -20 -61 -62 -82 hhcurveto
            return
          </CharString>
          <CharString index="391">
            hlineto
            -79 -68 29 86 16 hvcurveto
            99 17 return
          </CharString>
          <CharString index="392">
            324 callsubr
            -69 -68 return
          </CharString>
          <CharString index="393">
            hlineto
            349 callsubr
            return
          </CharString>
          <CharString index="394">
            274 callgsubr
            -101 -18 63 138 callgsubr
            87 73 103 18 hvcurveto
            return
          </CharString>
          <CharString index="395">
            -95 139 hhcurveto
            106 75 61 91 42 hvcurveto
            -42 -239 rlineto
            -181 103 rmoveto
            -119 return
          </CharString>
          <CharString index="396">
            -28 -159 rlineto
            return
          </CharString>
          <CharString index="397">
            hvcurveto
            -3 -17 rlineto
            return
          </CharString>
          <CharString index="398">
            30 167 rlineto
            return
          </CharString>
          <CharString index="399">
            247 920 -40 callsubr
            -893 -100 callsubr
            715 hlineto
            return
          </CharString>
          <CharString index="400">
            -71 -61 -84 -14 hvcurveto
            -99 -17 73 -59 81 hhcurveto
            24 29 5 5 14 hvcurveto
            endchar
          </CharString>
          <CharString index="401">
            -42 361 callgsubr
            4 20 rlineto
            -68 hlineto
            -59 return
          </CharString>
          <CharString index="402">
            -376 -32 callsubr
            rrcurveto
            return
          </CharString>
          <CharString index="403">
            -62 327 callgsubr
            return
          </CharString>
          <CharString index="404">
            -100 callsubr
            442 hlineto
            return
          </CharString>
          <CharString index="405">
            hlineto
            -83 -41 -39 -49 -8 hvcurveto
            return
          </CharString>
          <CharString index="406">
            -1 -7 -1 -6 return
          </CharString>
          <CharString index="407">
            116 18 hvcurveto
            return
          </CharString>
          <CharString index="408">
            hhcurveto
            187 -346 rmoveto
            346 callsubr
            return
          </CharString>
          <CharString index="409">
            322 callgsubr
            endchar
          </CharString>
          <CharString index="410">
            rmoveto
            14 3 -9 10 -14 hhcurveto
            -15 return
          </CharString>
          <CharString index="411">
            -87 131 hhcurveto
            return
          </CharString>
          <CharString index="412">
            17 hvcurveto
            -17 hlineto
            return
          </CharString>
          <CharString index="413">
            161 28 113 98 148 hhcurveto
            141 85 -103 -156 -28 hvcurveto
            return
          </CharString>
          <CharString index="414">
            rlineto
            -8 320 callsubr
            return
          </CharString>
          <CharString index="415">
            hhcurveto
            450 337 rmoveto
            -114 -74 -69 -77 -37 hvcurveto
            50 286 rlineto
            return
          </CharString>
          <CharString index="416">
            rlineto
            91 16 58 48 74 hhcurveto
            70 34 -48 -62 -11 hvcurveto
            16 hlineto
            72 13 return
          </CharString>
          <CharString index="417">
            hhcurveto
            95 43 -68 -84 -15 hvcurveto
            -142 -25 -130 -28 -100 hhcurveto
            -96 hlineto
            return
          </CharString>
          <CharString index="418">
            hmoveto
            20 hlineto
            472 704 rlineto
            -20 hlineto
            return
          </CharString>
          <CharString index="419">
            hhcurveto
            27 25 4 7 return
          </CharString>
          <CharString index="420">
            158 hlineto
            151 return
          </CharString>
          <CharString index="421">
            hlineto
            2 16 rlineto
            return
          </CharString>
          <CharString index="422">
            141 hhcurveto
            106 return
          </CharString>
          <CharString index="423">
            35 callsubr
            374 hlineto
            return
          </CharString>
          <CharString index="424">
            -36 -163 -29 290 callsubr
            17 hlineto
            3 17 rlineto
            173 31 return
          </CharString>
          <CharString index="425">
            hhcurveto
            98 63 366 callgsubr
            hvcurveto
            122 callgsubr
            return
          </CharString>
          <CharString index="426">
            hvcurveto
            -1 -7 -1 return
          </CharString>
          <CharString index="427">
            298 callsubr
            -57 -10 31 -45 361 callgsubr
            return
          </CharString>
          <CharString index="428">
            rmoveto
            -122 -89 79 138 24 hvcurveto
            return
          </CharString>
          <CharString index="429">
            -109 -127 -17 hvcurveto
            -2 -15 rlineto
            return
          </CharString>
          <CharString index="430">
            -1 73 76 19 106 27 153 rcurveline
            return
          </CharString>
          <CharString index="431">
            hlineto
            -30 -170 rlineto
            -96 -17 return
          </CharString>
          <CharString index="432">
            hlineto
            -84 -75 -31 -84 -15 hvcurveto
            return
          </CharString>
          <CharString index="433">
            rmoveto
            -6 -38 rlineto
            31 hlineto
            return
          </CharString>
          <CharString index="434">
            rlineto
            313 callsubr
            return
          </CharString>
          <CharString index="435">
            -4 -1 -4 -1 -4 vhcurveto
            return
          </CharString>
          <CharString index="436">
            41 155 28 hvcurveto
            return
          </CharString>
          <CharString index="437">
            340 callgsubr
            -51 -46 -17 -29 -34 hvcurveto
            return
          </CharString>
          <CharString index="438">
            131 -38 callgsubr
            return
          </CharString>
          <CharString index="439">
            rlineto
            333 callsubr
            return
          </CharString>
          <CharString index="440">
            17 hlineto
            128 -49 callgsubr
            return
          </CharString>
          <CharString index="441">
            254 callgsubr
            3 hlineto
            128 return
          </CharString>
          <CharString index="442">
            27 hvcurveto
            -17 hlineto
            -58 -27 -74 -70 -113 hhcurveto
            -136 return
          </CharString>
          <CharString index="443">
            263 callsubr
            -49 -63 -71 return
          </CharString>
          <CharString index="444">
            hlineto
            -28 -35 -20 -43 -9 -50 rrcurveto
            return
          </CharString>
          <CharString index="445">
            357 callgsubr
            -26 return
          </CharString>
          <CharString index="446">
            hvcurveto
            -1 -8 17 -2 1 10 rlineto
            return
          </CharString>
          <CharString index="447">
            315 rlineto
            167 return
          </CharString>
          <CharString index="448">
            -8 rlinecurve
            -2 vlineto
            return
          </CharString>
          <CharString index="449">
            -8 -2 -8 -1 return
          </CharString>
          <CharString index="450">
            132 rmoveto
            -121 -84 53 350 callsubr
            83 return
          </CharString>
          <CharString index="451">
            137 callsubr
            75 112 141 hhcurveto
            return
          </CharString>
          <CharString index="452">
            hlineto
            -70 -396 rlineto
            -103 -21 -103 -94 -120 hhcurveto
            return
          </CharString>
          <CharString index="453">
            200 callgsubr
            -122 -102 return
          </CharString>
          <CharString index="454">
            -1 rcurveline
            -53 -299 rlineto
            endchar
          </CharString>
          <CharString index="455">
            21 hlineto
            -146 171 return
          </CharString>
          <CharString index="456">
            96 540 rlineto
            return
          </CharString>
          <CharString index="457">
            114 20 hvcurveto
            return
          </CharString>
          <CharString index="458">
            hlineto
            -92 -522 rlineto
            20 hlineto
            92 522 rlineto
            return
          </CharString>
          <CharString index="459">
            rlineto
            25 hlineto
            384 327 -54 -307 rlineto
            return
          </CharString>
          <CharString index="460">
            -268 312 275 callgsubr
            return
          </CharString>
          <CharString index="461">
            7 13 35 hvcurveto
            -254 -194 rlineto
            24 hlineto
            return
          </CharString>
          <CharString index="462">
            -32 callsubr
            rrcurveto
            endchar
          </CharString>
          <CharString index="463">
            65 98 hhcurveto
            95 58 -66 -93 return
          </CharString>
          <CharString index="464">
            -36 callgsubr
            -2 return
          </CharString>
          <CharString index="465">
            hlineto
            26 147 rlineto
            return
          </CharString>
          <CharString index="466">
            -109 hhcurveto
            194 return
          </CharString>
          <CharString index="467">
            hhcurveto
            -64 hlineto
            -111 return
          </CharString>
          <CharString index="468">
            -3 -6 -16 hvcurveto
            return
          </CharString>
          <CharString index="469">
            -211 -37 114 -148 196 hhcurveto
            return
          </CharString>
          <CharString index="470">
            30 11 34 6 36 19 118 -42 95 return
          </CharString>
          <CharString index="471">
            -2 -6 -1 255 callgsubr
            return
          </CharString>
          <CharString index="472">
            hhcurveto
            -23 -21 -3 return
          </CharString>
          <CharString index="473">
            -51 -289 rlineto
            return
          </CharString>
        <CharString name=".notdef">
          -76 0 vmoveto
          500 700 -500 hlineto
          250 -305 rmoveto
          -170 255 rlineto
          340 hlineto
          -140 -300 rmoveto
          170 255 rlineto
          -510 vlineto
          -370 -45 rmoveto
          170 255 170 -255 rlineto
          -370 555 rmoveto
          170 -255 -170 -255 rlineto
          endchar
        </CharString>
        <CharString name="A">
          25 488 4 callsubr
          -4 18 142 callsubr
        </CharString>
        <CharString name="AE">
          261 499 667 128 callsubr
        </CharString>
        <CharString name="Aacute">
          25 488 4 callsubr
          -73 576 rmoveto
          -4 -20 210 130 5 24 rlineto
          -142 -692 142 callsubr
        </CharString>
        <CharString name="Abreve">
          25 490 4 callsubr
          67 690 -67 callsubr
          -71 -672 142 callsubr
        </CharString>
        <CharString name="Acircumflex">
          25 490 4 callsubr
          59 610 rmoveto
          -109 81 -138 -81 -4 -20 138 81 109 -81 rlineto
          -59 -572 142 callsubr
        </CharString>
        <CharString name="Adieresis">
          25 493 4 callsubr
          -131 597 -90 callgsubr
          -7 -579 142 callsubr
        </CharString>
        <CharString name="Agrave">
          25 488 4 callsubr
          -244 686 rmoveto
          164 -130 4 20 -163 134 rlineto
          235 -692 142 callsubr
        </CharString>
        <CharString name="Amacron">
          25 494 4 callsubr
          -216 629 rmoveto
          309 217 callsubr
          -309 hlineto
          208 -629 142 callsubr
        </CharString>
        <CharString name="Aogonek">
          25 -19 hmoveto
          23 hlineto
          108 194 rlineto
          347 hlineto
          40 -194 -85 -3 -43 -41 -9 -51 rlinecurve
          -53 -10 31 294 callsubr
          -32 28 47 9 hvcurveto
          47 8 41 28 59 hhcurveto
          28 hlineto
          4 20 -140 683 rlineto
          -20 hlineto
          93 -471 rmoveto
          -333 hlineto
          244 437 rlineto
          endchar
        </CharString>
        <CharString name="Aring">
          25 483 4 callsubr
          10 675 rmoveto
          -45 -8 -35 -27 -40 hhcurveto
          -40 -25 27 45 8 hvcurveto
          45 8 35 27 40 hhcurveto
          40 25 -27 -45 -8 hvcurveto
          -160 hmoveto
          -56 -10 35 -34 49 hhcurveto
          49 47 34 56 10 hvcurveto
          56 10 -35 34 -49 hhcurveto
          -49 -47 -34 -56 -10 hvcurveto
          146 -657 142 callsubr
        </CharString>
        <CharString name="Atilde">
          25 494 4 callsubr
          -181 574 -77 callsubr
          177 -556 142 callsubr
        </CharString>
        <CharString name="B">
          -16 461 188 rmoveto
          -104 -18 -87 -64 -128 hhcurveto
          -182 hlineto
          60 336 rlineto
          180 hlineto
          128 65 -66 -102 -18 hvcurveto
          45 344 rmoveto
          -95 -17 -73 -61 -119 hhcurveto
          -188 hlineto
          55 308 rlineto
          182 hlineto
          132 43 -64 -88 -15 hvcurveto
          -25 -344 rmoveto
          17 92 -53 70 -85 16 75 15 73 50 18 101 rrcurveto
          96 17 -47 76 -147 hhcurveto
          -202 348 callgsubr
          202 hlineto
          152 86 84 104 18 hvcurveto
          endchar
        </CharString>
        <CharString name="C">
          193 60 -21 callsubr
          endchar
        </CharString>
        <CharString name="CR">
          -286 endchar
        </CharString>
        <CharString name="Cacute">
          193 61 -21 callsubr
          400 419 -13 callgsubr
        </CharString>
        <CharString name="Ccaron">
          193 63 -21 callsubr
          409 450 -2 callsubr
        </CharString>
        <CharString name="Ccedilla">
          193 70 351 rmoveto
          -210 -37 111 -148 191 6 6 0 7 hhcurveto
          -18 -100 rlineto
          44 callgsubr
          15 84 rcurveline
          148 12 106 81 65 119 rrcurveto
          -20 hlineto
          329 callgsubr
          -84 -160 hhcurveto
          -170 -114 129 211 37 hvcurveto
          213 37 160 129 170 hhcurveto
          160 85 -84 -113 21 hvcurveto
          20 hlineto
          130 -25 -89 85 -169 hhcurveto
          -191 -163 -148 305 callgsubr
          endchar
        </CharString>
        <CharString name="Cdotaccent">
          193 66 -21 callsubr
          408 440 -33 callgsubr
        </CharString>
        <CharString name="D">
          126 332 131 callsubr
          endchar
        </CharString>
        <CharString name="Dcaron">
          126 334 131 callsubr
          237 783 -2 callsubr
        </CharString>
        <CharString name="Dcroat">
          166 390 80 callsubr
        </CharString>
        <CharString name="E">
          -97 491 -57 callsubr
          endchar
        </CharString>
        <CharString name="Eacute">
          -97 491 -57 callsubr
          -155 84 -13 callgsubr
        </CharString>
        <CharString name="Ebreve">
          -97 493 -57 callsubr
          -15 198 -67 callsubr
          endchar
        </CharString>
        <CharString name="Ecaron">
          -97 493 -57 callsubr
          -146 115 -2 callsubr
        </CharString>
        <CharString name="Ecircumflex">
          -97 493 -57 callsubr
          -23 118 -1 callsubr
        </CharString>
        <CharString name="Edieresis">
          -97 496 -57 callsubr
          -213 105 -90 callgsubr
          endchar
        </CharString>
        <CharString name="Edotaccent">
          -97 496 -57 callsubr
          -147 105 -33 callgsubr
        </CharString>
        <CharString name="Egrave">
          -97 491 -57 callsubr
          -326 194 34 callgsubr
        </CharString>
        <CharString name="Emacron">
          -97 497 -57 callsubr
          -298 137 91 callsubr
        </CharString>
        <CharString name="Eogonek">
          -97 489 704 rmoveto
          -344 348 callgsubr
          266 hlineto
          -49 -13 -26 -31 -6 -38 rrcurveto
          -57 -10 31 -45 361 callgsubr
          4 20 rlineto
          107 callgsubr
          3 18 rlineto
          -324 216 callsubr
          294 hlineto
          4 98 callsubr
          324 hlineto
          endchar
        </CharString>
        <CharString name="Eth">
          166 372 80 callsubr
        </CharString>
        <CharString name="Euro">
          261 128 351 rmoveto
          -5 -28 -2 -27 -25 vvcurveto
          -115 244 callgsubr
          118 hlineto
          -157 9 103 -103 160 hhcurveto
          169 119 85 129 70 hvcurveto
          -20 hlineto
          329 callgsubr
          -84 -160 hhcurveto
          -142 -103 90 152 -8 hvcurveto
          298 190 callgsubr
          -302 hlineto
          25 2 27 5 28 vhcurveto
          4 22 5 20 6 20 rrcurveto
          305 190 callgsubr
          -302 hlineto
          165 59 139 97 148 hhcurveto
          160 85 -84 -113 21 hvcurveto
          20 hlineto
          130 -25 -89 85 -169 hhcurveto
          -166 -145 -112 -168 -59 hvcurveto
          -115 244 callgsubr
          112 hlineto
          -6 -20 -5 -21 -4 -21 rrcurveto
          endchar
        </CharString>
        <CharString name="F">
          -107 23 hmoveto
          20 hlineto
          60 343 rlineto
          294 hlineto
          4 98 callsubr
          324 190 callgsubr
          -344 hlineto
          endchar
        </CharString>
        <CharString name="G">
          216 60 5 callsubr
          endchar
        </CharString>
        <CharString name="Gbreve">
          216 62 5 callsubr
          552 533 -67 callsubr
          endchar
        </CharString>
        <CharString name="Gdotaccent">
          216 66 5 callsubr
          420 440 -33 callgsubr
        </CharString>
        <CharString name="H">
          73 482 130 callsubr
          -59 -333 rlineto
          -439 hlineto
          59 333 rlineto
          -20 hlineto
          324 callgsubr
          62 353 rlineto
          439 hlineto
          endchar
        </CharString>
        <CharString name="I">
          -386 23 130 callsubr
          endchar
        </CharString>
        <CharString name="Iacute">
          -386 23 130 callsubr
          24 66 -13 callgsubr
        </CharString>
        <CharString name="Icircumflex">
          -386 25 130 callsubr
          156 100 -1 callsubr
        </CharString>
        <CharString name="Idieresis">
          -386 28 130 callsubr
          -34 87 -90 callgsubr
          endchar
        </CharString>
        <CharString name="Idotaccent">
          -386 28 130 callsubr
          32 87 -33 callgsubr
        </CharString>
        <CharString name="Igrave">
          -386 23 130 callsubr
          -147 176 34 callgsubr
        </CharString>
        <CharString name="Imacron">
          -386 29 130 callsubr
          -119 119 91 callsubr
        </CharString>
        <CharString name="Iogonek">
          -386 52 -164 rmoveto
          107 callgsubr
          124 704 rlineto
          -20 hlineto
          -123 -698 307 callsubr
          endchar
        </CharString>
        <CharString name="Itilde">
          -386 29 130 callsubr
          -84 64 -77 callsubr
          endchar
        </CharString>
        <CharString name="J">
          -150 290 143 rmoveto
          -58 -10 -42 -74 -105 hhcurveto
          -107 -22 78 84 15 hvcurveto
          -20 hlineto
          -110 -19 45 -70 105 hhcurveto
          99 66 67 83 15 hvcurveto
          99 561 rlineto
          -20 hlineto
          endchar
        </CharString>
        <CharString name="K">
          -82 385 hmoveto
          207 callgsubr
        </CharString>
        <CharString name="L">
          -181 147 704 rmoveto
          125 callgsubr
          endchar
        </CharString>
        <CharString name="Lacute">
          -181 147 704 rmoveto
          125 callgsubr
          -3 66 -13 callgsubr
        </CharString>
        <CharString name="Lcaron">
          -181 294 704 144 callgsubr
          -205 hmoveto
          125 callgsubr
          endchar
        </CharString>
        <CharString name="Ldot">
          -181 145 704 rmoveto
          125 callgsubr
          119 -382 -33 callgsubr
        </CharString>
        <CharString name="Lslash">
          -161 167 704 rmoveto
          -57 -325 -103 -45 -4 -22 103 45 -63 -357 rlineto
          290 190 callgsubr
          -270 hlineto
          61 348 175 76 4 22 -175 -76 56 316 rlineto
          endchar
        </CharString>
        <CharString name="M">
          221 25 hmoveto
          20 hlineto
          111 633 173 -633 rlineto
          20 hlineto
          394 635 -111 -635 rlineto
          20 hlineto
          120 684 rlineto
          -20 hlineto
          -408 -657 -179 657 rlineto
          -20 hlineto
          endchar
        </CharString>
        <CharString name="N">
          71 604 703 36 callsubr
          endchar
        </CharString>
        <CharString name="NULL">
          -576 endchar
        </CharString>
        <CharString name="Nacute">
          71 604 703 36 callsubr
          -225 67 -13 callgsubr
        </CharString>
        <CharString name="Ncaron">
          71 606 703 36 callsubr
          -216 98 -2 callsubr
        </CharString>
        <CharString name="Ntilde">
          71 610 703 36 callsubr
          -333 65 -77 callsubr
          endchar
        </CharString>
        <CharString name="O">
          216 60 -88 callsubr
          endchar
        </CharString>
        <CharString name="OE">
          530 81 351 rmoveto
          212 37 163 129 175 hhcurveto
          175 117 -129 305 callgsubr
          -212 -37 -163 -129 -175 hhcurveto
          -175 -117 129 212 37 hvcurveto
          1034 335 rmoveto
          3 18 rlineto
          -344 hlineto
          -42 -242 rlineto
          150 -6 -112 98 -155 hhcurveto
          -196 -166 -148 -211 -37 hvcurveto
          362 callsubr
          155 146 98 150 58 hvcurveto
          -42 -240 rlineto
          344 190 callgsubr
          -324 hlineto
          58 325 rlineto
          294 hlineto
          3 98 callsubr
          endchar
        </CharString>
        <CharString name="Oacute">
          216 61 -88 callsubr
          -239 419 -13 callgsubr
        </CharString>
        <CharString name="Ocircumflex">
          216 63 -88 callsubr
          -107 453 -1 callsubr
        </CharString>
        <CharString name="Odieresis">
          216 66 -88 callsubr
          -297 440 -90 callgsubr
          endchar
        </CharString>
        <CharString name="Ograve">
          216 61 -88 callsubr
          -410 529 34 callgsubr
        </CharString>
        <CharString name="Ohungarumlaut">
          216 64 -88 callsubr
          -110 518 146 callsubr
        </CharString>
        <CharString name="Omacron">
          216 67 -88 callsubr
          -383 472 91 callsubr
        </CharString>
        <CharString name="Oslash">
          216 60 351 rmoveto
          -18 -103 18 -88 45 -63 -106 -97 rcurveline
          25 hlineto
          92 84 rlineto
          -58 48 75 -34 94 hhcurveto
          196 166 148 211 37 hvcurveto
          18 103 -18 89 -46 63 107 98 rcurveline
          -24 hlineto
          -93 -85 rlineto
          57 -49 -75 34 -93 hhcurveto
          -196 -166 -148 -211 -37 hvcurveto
          21 hmoveto
          212 37 163 129 175 hhcurveto
          86 72 -31 -57 46 hvcurveto
          -539 -492 -41 58 -16 81 17 100 rlinecurve
          255 -341 rmoveto
          -86 -72 31 57 -47 hvcurveto
          539 493 41 -58 18 -82 -18 -100 rlinecurve
          -212 -37 -163 -129 -175 hhcurveto
          endchar
        </CharString>
        <CharString name="Otilde">
          216 67 -88 callsubr
          -347 417 -77 callsubr
          endchar
        </CharString>
        <CharString name="P">
          -48 103 338 rmoveto
          61 346 rlineto
          222 callsubr
          255 172 rmoveto
          117 20 -51 77 -160 hhcurveto
          -178 hlineto
          324 callgsubr
          56 317 347 callgsubr
          endchar
        </CharString>
        <CharString name="Q">
          216 712 351 rmoveto
          -212 -37 -163 -129 -175 hhcurveto
          -175 -117 129 212 37 hvcurveto
          212 37 163 129 175 hhcurveto
          175 117 -129 305 callgsubr
          -651 hmoveto
          362 callsubr
          42 41 7 13 38 hvcurveto
          177 -161 rlineto
          35 hlineto
          -186 170 127 53 98 122 27 155 rlinecurve
          211 37 -114 148 -196 hhcurveto
          -196 -166 -148 -211 -37 hvcurveto
          endchar
        </CharString>
        <CharString name="R">
          -41 495 26 callsubr
          endchar
        </CharString>
        <CharString name="Racute">
          -41 495 26 callsubr
          41 66 -13 callgsubr
        </CharString>
        <CharString name="Rcaron">
          -41 497 26 callsubr
          50 97 -2 callsubr
        </CharString>
        <CharString name="S">
          -40 114 563 -24 callsubr
          endchar
        </CharString>
        <CharString name="Sacute">
          -40 115 563 -24 callsubr
          230 207 -13 callgsubr
        </CharString>
        <CharString name="Scaron">
          -40 117 563 -24 callsubr
          239 238 -2 callsubr
        </CharString>
        <CharString name="T">
          -106 79 686 174 callgsubr
          endchar
        </CharString>
        <CharString name="Tcaron">
          -106 81 686 174 callgsubr
          238 97 -2 callsubr
        </CharString>
        <CharString name="Thorn">
          -48 75 180 rmoveto
          61 346 rlineto
          222 callsubr
          255 172 rmoveto
          117 21 -52 77 -160 hhcurveto
          -158 hlineto
          28 158 rlineto
          -20 hlineto
          324 callgsubr
          28 159 347 callgsubr
          endchar
        </CharString>
        <CharString name="U">
          53 66 -73 callgsubr
          endchar
        </CharString>
        <CharString name="Uacute">
          53 67 -73 callgsubr
          247 66 -13 callgsubr
        </CharString>
        <CharString name="Ubreve">
          53 68 -73 callgsubr
          387 180 -67 callsubr
          endchar
        </CharString>
        <CharString name="Ucircumflex">
          53 69 -73 callgsubr
          379 100 -1 callsubr
        </CharString>
        <CharString name="Udieresis">
          53 72 -73 callgsubr
          189 87 -90 callgsubr
          endchar
        </CharString>
        <CharString name="Ugrave">
          53 67 -73 callgsubr
          76 176 34 callgsubr
        </CharString>
        <CharString name="Uhungarumlaut">
          53 70 -73 callgsubr
          376 165 146 callsubr
        </CharString>
        <CharString name="Umacron">
          53 72 -73 callgsubr
          104 119 91 callsubr
        </CharString>
        <CharString name="Uogonek">
          53 71 267 rmoveto
          -31 -174 75 -83 114 -15 -34 -9 -27 -34 -6 -34 rrcurveto
          -53 -9 30 294 callsubr
          -31 28 47 8 hvcurveto
          8 43 35 28 50 4 131 9 101 78 33 187 77 437 rcurveline
          -20 hlineto
          -77 -437 rlineto
          -207 -37 -112 -49 -109 59 callgsubr
          endchar
        </CharString>
        <CharString name="Uring">
          53 62 -73 callgsubr
          170 165 65 callsubr
        </CharString>
        <CharString name="Utilde">
          53 73 -73 callgsubr
          139 64 -77 callsubr
          endchar
        </CharString>
        <CharString name="V">
          43 237 hmoveto
          20 hlineto
          394 704 rlineto
          -24 hlineto
          -375 -669 -136 669 rlineto
          -24 hlineto
          endchar
        </CharString>
        <CharString name="W">
          328 162 24 callsubr
          endchar
        </CharString>
        <CharString name="Wacute">
          328 162 24 callsubr
          431 66 -13 callgsubr
        </CharString>
        <CharString name="Wcircumflex">
          328 164 24 callsubr
          563 100 -1 callsubr
        </CharString>
        <CharString name="Wdieresis">
          328 167 24 callsubr
          373 87 -90 callgsubr
          endchar
        </CharString>
        <CharString name="Wgrave">
          328 162 24 callsubr
          260 176 34 callgsubr
        </CharString>
        <CharString name="X">
          -76 385 hmoveto
          23 hlineto
          -147 353 271 351 rlineto
          -23 hlineto
          -255 -333 -139 333 rlineto
          -23 hlineto
          144 -347 -268 -357 rlineto
          23 hlineto
          253 338 rlineto
          endchar
        </CharString>
        <CharString name="Y">
          -58 240 30 callsubr
          endchar
        </CharString>
        <CharString name="Yacute">
          -58 240 30 callsubr
          243 66 -13 callgsubr
        </CharString>
        <CharString name="Ycircumflex">
          -58 242 30 callsubr
          375 100 -1 callsubr
        </CharString>
        <CharString name="Ydieresis">
          -58 245 30 callsubr
          185 87 -90 callgsubr
          endchar
        </CharString>
        <CharString name="Ygrave">
          -58 240 30 callsubr
          72 176 34 callgsubr
        </CharString>
        <CharString name="Z">
          -89 504 75 callsubr
          endchar
        </CharString>
        <CharString name="Zacute">
          -89 504 75 callsubr
          -182 86 -13 callgsubr
        </CharString>
        <CharString name="Zcaron">
          -89 506 75 callsubr
          -173 117 -2 callsubr
        </CharString>
        <CharString name="Zdotaccent">
          -89 509 75 callsubr
          -174 107 -33 callgsubr
        </CharString>
        <CharString name="a">
          95 60 -88 callgsubr
          endchar
        </CharString>
        <CharString name="aacute">
          95 59 -88 callgsubr
          -197 336 -13 callgsubr
        </CharString>
        <CharString name="abreve">
          95 61 -88 callgsubr
          -57 450 -67 callsubr
          endchar
        </CharString>
        <CharString name="acircumflex">
          95 61 -88 callgsubr
          -65 370 -1 callsubr
        </CharString>
        <CharString name="acute">
          -309 90 606 -13 callgsubr
        </CharString>
        <CharString name="adieresis">
          95 64 -88 callgsubr
          -255 357 -90 callgsubr
          endchar
        </CharString>
        <CharString name="ae">
          559 873 11 callgsubr
          endchar
        </CharString>
        <CharString name="agrave">
          95 59 -88 callgsubr
          -368 446 34 callgsubr
        </CharString>
        <CharString name="amacron">
          95 65 -88 callgsubr
          -340 389 91 callsubr
        </CharString>
        <CharString name="ampersand">
          96 393 180 rmoveto
          6 34 -4 17 -12 24 193 -255 rcurveline
          24 hlineto
          -322 428 -28 38 -23 36 12 64 rlinecurve
          66 11 57 61 90 hhcurveto
          90 45 -56 -91 -16 hvcurveto
          -1 -8 -2 -8 -2 -9 rrcurveto
          20 hlineto
          6 27 rlineto
          80 14 -32 83 -119 hhcurveto
          -105 -63 -72 -73 -13 hvcurveto
          -14 -76 31 -43 34 -43 12 -15 12 -15 12 -15 rrcurveto
          16 -18 -32 11 -38 hhcurveto
          -91 -92 -64 -128 -23 hvcurveto
          -129 -23 81 -72 104 hhcurveto
          108 91 78 109 20 hvcurveto
          -361 14 rmoveto
          116 21 79 56 87 hhcurveto
          89 84 -78 -108 -19 hvcurveto
          -97 -17 -82 -70 -97 hhcurveto
          -93 -72 64 117 20 hvcurveto
          302 130 rmoveto
          -16 18 -1 2 0 2 -1 1 rlinecurve
          6 -7 6 -8 6 -8 rrcurveto
          endchar
        </CharString>
        <CharString name="aogonek">
          95 62 270 rmoveto
          -172 -30 89 -105 155 hhcurveto
          128 102 76 105 46 hvcurveto
          -30 -168 rlineto
          -9 320 callsubr
          4 20 rlineto
          107 callgsubr
          349 callsubr
          -19 hlineto
          -31 -174 rlineto
          0 callgsubr
          507 hmoveto
          -156 -28 -121 -103 -141 hhcurveto
          -148 -77 98 161 28 hvcurveto
          306 callsubr
          endchar
        </CharString>
        <CharString name="approxequal">
          -164 24 268 114 callgsubr
          30 175 114 callgsubr
          endchar
        </CharString>
        <CharString name="aring">
          95 55 -88 callgsubr
          -274 435 65 callsubr
        </CharString>
        <CharString name="asciicircum">
          -24 447 174 rmoveto
          20 hlineto
          -140 509 rlineto
          -12 hlineto
          -320 -509 rlineto
          20 hlineto
          302 479 rlineto
          endchar
        </CharString>
        <CharString name="asciitilde">
          -164 32 279 114 callgsubr
          endchar
        </CharString>
        <CharString name="asterisk">
          -147 276 728 rmoveto
          -50 hlineto
          -18 -169 -121 97 -36 -47 148 -66 -170 -64 17 -45 158 97 -42 -171 rlineto
          51 hlineto
          14 171 120 -94 31 43 -150 64 172 64 -17 45 -151 -94 rlineto
          endchar
        </CharString>
        <CharString name="at">
          448 741 315 rmoveto
          -183 -33 -135 -126 -144 hhcurveto
          -130 -49 106 123 22 hvcurveto
          168 29 122 130 151 hhcurveto
          157 31 -100 -118 -21 hvcurveto
          -489 -80 rmoveto
          -147 -26 71 -100 129 hhcurveto
          108 88 59 91 63 hvcurveto
          2 -1 rlineto
          -121 -53 41 -28 60 hhcurveto
          106 110 139 194 34 hvcurveto
          248 43 -104 190 -292 hhcurveto
          -329 -210 -257 -269 -48 hvcurveto
          -56 -320 163 -147 277 -5 6 19 rcurveline
          -260 6 -163 131 55 316 rrcurveto
          284 50 214 223 298 hhcurveto
          279 100 -171 -248 -43 hvcurveto
          -194 -34 -100 -121 -93 hhcurveto
          -46 -28 18 69 25 hvcurveto
          58 169 rlineto
          145 51 -41 146 -179 hhcurveto
          -150 -144 -134 -184 -32 hvcurveto
          endchar
        </CharString>
        <CharString name="atilde">
          95 66 -88 callgsubr
          -305 334 -77 callsubr
          endchar
        </CharString>
        <CharString name="b">
          95 70 174 rmoveto
          -105 10 74 -76 128 hhcurveto
          155 127 105 172 30 hvcurveto
          172 30 -89 105 -155 hhcurveto
          -128 -102 -76 -105 -46 hvcurveto
          66 374 rlineto
          -19 hlineto
          -131 -740 rlineto
          19 hlineto
          48 270 rmoveto
          156 27 122 103 141 hhcurveto
          148 77 -98 -161 -28 hvcurveto
          -161 -28 -113 -98 -148 hhcurveto
          -141 -85 103 156 28 hvcurveto
          endchar
        </CharString>
        <CharString name="backslash">
          -102 149 935 rmoveto
          -23 hlineto
          162 -1091 rlineto
          21 hlineto
          endchar
        </CharString>
        <CharString name="bar">
          -386 161 778 rmoveto
          -152 -864 rlineto
          20 hlineto
          152 864 rlineto
          endchar
        </CharString>
        <CharString name="braceleft">
          -283 52 373 rmoveto
          90 19 47 72 13 72 12 69 -20 39 17 99 19 108 84 75 52 31 1 4 rcurveline
          -20 hlineto
          -34 -19 -99 -73 -24 -132 -14 -83 16 -58 -10 -60 -8 -45 -18 -73 -114 -34 -4 -24 rcurveline
          102 -34 -8 -73 -8 -45 -10 -60 -38 -58 -14 -83 -24 -132 73 -73 28 -19 rrcurveto
          20 hlineto
          1 4 -42 31 -56 75 19 108 rlinecurve
          17 99 34 39 12 69 13 72 -23 72 -82 19 rrcurveto
          endchar
        </CharString>
        <CharString name="braceright">
          -273 251 371 rmoveto
          -90 -19 -47 -72 -13 -72 -12 -69 20 -39 -17 -99 -19 -108 -84 -75 -52 -31 -1 -4 rcurveline
          20 hlineto
          34 19 99 73 24 132 14 83 -16 58 10 60 8 45 18 73 114 34 4 24 rcurveline
          -102 34 8 73 8 45 10 60 38 58 14 83 24 132 -73 73 -28 19 rrcurveto
          -20 hlineto
          -1 -4 42 -31 56 -75 -19 -108 rlinecurve
          -17 -99 -34 -39 -12 -69 -13 -72 23 -72 82 -19 rrcurveto
          endchar
        </CharString>
        <CharString name="bracketleft">
          -357 -11 -155 rmoveto
          94 190 callgsubr
          -74 hlineto
          186 1054 rlineto
          74 190 callgsubr
          -94 hlineto
          endchar
        </CharString>
        <CharString name="bracketright">
          -357 230 935 rmoveto
          -94 244 callgsubr
          74 hlineto
          -186 -1054 rlineto
          -74 244 callgsubr
          94 hlineto
          endchar
        </CharString>
        <CharString name="breve">
          -260 345 720 -67 callsubr
          endchar
        </CharString>
        <CharString name="brokenbar">
          -386 71 265 rmoveto
          -62 -351 rlineto
          20 hlineto
          62 351 rlineto
          28 163 rmoveto
          62 350 rlineto
          -20 hlineto
          -62 -350 rlineto
          endchar
        </CharString>
        <CharString name="bullet">
          -320 111 236 rmoveto
          55 50 43 54 10 hvcurveto
          55 10 -36 44 -55 hhcurveto
          -54 -51 -44 -55 -10 hvcurveto
          -54 -10 37 -43 54 hhcurveto
          endchar
        </CharString>
        <CharString name="c">
          52 60 -9 callsubr
          endchar
        </CharString>
        <CharString name="cacute">
          52 59 -9 callsubr
          301 336 -13 callgsubr
        </CharString>
        <CharString name="caron">
          -249 219 637 -2 callsubr
        </CharString>
        <CharString name="ccaron">
          52 61 -9 callsubr
          310 367 -2 callsubr
        </CharString>
        <CharString name="ccedilla">
          52 64 270 rmoveto
          -30 -171 88 -103 146 -3 -18 -100 rcurveline
          44 callgsubr
          15 82 rcurveline
          133 5 99 77 37 108 rrcurveto
          200 callgsubr
          -124 -102 80 179 32 hvcurveto
          179 32 130 80 124 hhcurveto
          120 79 -65 -107 -2 hvcurveto
          20 hlineto
          111 2 -76 79 -140 236 callgsubr
          endchar
        </CharString>
        <CharString name="cdotaccent">
          52 64 -9 callsubr
          309 357 -33 callgsubr
        </CharString>
        <CharString name="cedilla">
          -327 106 7 rmoveto
          -20 hlineto
          -20 -114 rlineto
          44 callgsubr
          rrcurveto
          endchar
        </CharString>
        <CharString name="cent">
          12 519 213 rmoveto
          277 callgsubr
          -93 -65 -109 hhcurveto
          -114 -94 71 158 28 hvcurveto
          158 28 118 71 114 hhcurveto
          109 71 -65 -107 -2 hvcurveto
          20 hlineto
          2 110 -67 79 -128 1 19 106 rcurveline
          -20 hlineto
          -19 -107 -130 -7 -109 -91 -26 -148 rlinecurve
          -26 -148 77 -91 128 -7 -21 -117 rcurveline
          20 hlineto
          20 116 rlineto
          127 95 79 111 38 hvcurveto
          endchar
        </CharString>
        <CharString name="circumflex">
          -249 342 640 -1 callsubr
        </CharString>
        <CharString name="colon">
          -463 -13 hmoveto
          216 callgsubr
          72 405 rmoveto
          216 callgsubr
          endchar
        </CharString>
        <CharString name="comma">
          -456 17 31 169 callgsubr
          42 36 27 90 5 hvcurveto
          endchar
        </CharString>
        <CharString name="copyright">
          227 743 352 rmoveto
          -205 -36 -159 -145 -208 hhcurveto
          -203 -113 145 205 36 hvcurveto
          205 36 162 145 206 hhcurveto
          203 112 -145 -205 -36 hvcurveto
          -663 hmoveto
          -190 -34 99 -142 198 hhcurveto
          197 149 142 190 34 hvcurveto
          190 34 -99 142 -197 hhcurveto
          -198 -149 -142 -190 -34 hvcurveto
          111 1 rmoveto
          -158 -28 87 -81 113 hhcurveto
          91 93 53 102 46 hvcurveto
          -21 hlineto
          -90 -44 -82 -45 -79 hhcurveto
          -100 -82 73 144 26 hvcurveto
          146 26 106 73 100 hhcurveto
          79 68 -45 -90 12 hvcurveto
          21 hlineto
          102 -10 -75 53 -91 hhcurveto
          -113 -115 -81 -156 -28 hvcurveto
          endchar
        </CharString>
        <CharString name="currency">
          -75 120 377 rmoveto
          95 17 66 59 74 hhcurveto
          69 52 -59 -95 -17 hvcurveto
          -97 -17 -73 -57 -68 hhcurveto
          -74 -46 57 97 17 hvcurveto
          338 176 rmoveto
          -12 13 -71 -61 rlineto
          28 -23 -34 16 -38 hhcurveto
          -40 -39 -16 -28 -32 hvcurveto
          -50 61 -16 -13 52 -62 -27 -29 -20 -39 -8 -46 rlinecurve
          -8 -46 5 -39 17 -29 -73 -60 rcurveline
          12 -13 70 59 rlineto
          -28 21 34 -16 41 hhcurveto
          39 40 16 29 33 hvcurveto
          49 -60 16 13 -51 60 27 30 21 38 8 46 rlinecurve
          8 46 -7 39 -18 30 rrcurveto
          endchar
        </CharString>
        <CharString name="d">
          95 567 366 90 callgsubr
        </CharString>
        <CharString name="dagger">
          -147 271 537 rmoveto
          44 237 rlineto
          -18 hlineto
          -41 -237 -177 3 -3 -20 177 3 -138 -777 rlineto
          18 hlineto
          135 777 177 -3 3 20 rlineto
          endchar
        </CharString>
        <CharString name="daggerdbl">
          -146 449 540 rmoveto
          -177 -3 43 237 rlineto
          -18 hlineto
          -40 -237 -178 3 -3 -20 178 3 -92 -526 -178 4 -3 -21 178 3 -44 -237 rlineto
          18 hlineto
          41 237 177 -3 3 21 -177 -4 92 526 177 -3 rlineto
          endchar
        </CharString>
        <CharString name="danda">
          -349 230 742 rmoveto
          282 callsubr
          endchar
        </CharString>
        <CharString name="dcaron">
          95 712 740 rmoveto
          286 callgsubr
          -6 -29 rlineto
          -29 -5 -13 -16 -35 hhcurveto
          -3 -20 rlineto
          40 30 15 63 11 hvcurveto
          3 18 3 22 2 29 rrcurveto
          -202 -374 90 callgsubr
        </CharString>
        <CharString name="dcroat">
          88 566 366 rmoveto
          115 callgsubr
          115 650 rlineto
          69 190 callgsubr
          -69 hlineto
          13 72 rlineto
          -19 hlineto
          -13 -72 rlineto
          -204 244 callgsubr
          204 hlineto
          -67 -380 rmoveto
          -156 -28 -121 -103 -141 hhcurveto
          -148 -77 98 161 28 hvcurveto
          161 28 113 98 148 hhcurveto
          141 84 -103 -156 -27 hvcurveto
          endchar
        </CharString>
        <CharString name="degree">
          -220 30 519 rmoveto
          -103 -18 47 -69 89 hhcurveto
          89 71 69 103 18 hvcurveto
          103 18 -47 69 -89 hhcurveto
          -89 -71 -69 -103 -18 hvcurveto
          276 hmoveto
          -97 -17 -60 -57 -78 hhcurveto
          -78 -40 57 97 17 hvcurveto
          97 17 60 57 78 hhcurveto
          78 40 -57 -97 -17 hvcurveto
          endchar
        </CharString>
        <CharString name="dieresis">
          -257 148 627 -90 callgsubr
          endchar
        </CharString>
        <CharString name="divide">
          13 38 371 rmoveto
          509 190 callgsubr
          -509 hlineto
          187 -244 303 callgsubr
          66 375 303 callgsubr
          endchar
        </CharString>
        <CharString name="dollar">
          -40 180 -87 rmoveto
          20 hlineto
          14 80 rlineto
          2 3 0 2 hhcurveto
          140 68 95 81 14 hvcurveto
          24 136 -93 33 -94 29 57 324 rcurveline
          103 -11 32 -75 3 -46 rrcurveto
          20 hlineto
          -3 63 -40 77 -112 11 16 90 rcurveline
          -20 hlineto
          -16 -89 rlineto
          -2 -3 0 -2 hhcurveto
          -127 -77 -76 -92 -16 hvcurveto
          -23 -131 94 -30 93 -29 -60 -341 rcurveline
          -116 12 -33 91 2 54 rrcurveto
          -20 hlineto
          -6 -83 57 -81 113 -11 rrcurveto
          -81 549 rmoveto
          97 17 78 53 101 hhcurveto
          8 hlineto
          -56 -320 -87 27 -81 30 20 113 rlinecurve
          111 -532 rmoveto
          -7 hlineto
          59 336 87 -28 81 -33 -21 -117 rlinecurve
          -85 -15 -68 -73 -116 hhcurveto
          endchar
        </CharString>
        <CharString name="dotaccent">
          -422 132 627 -33 callgsubr
        </CharString>
        <CharString name="dotlessi">
          -386 37 162 callsubr
          endchar
        </CharString>
        <CharString name="dottedcircle">
          75 557 409 10 callsubr
          -376 -286 10 callsubr
          98 -76 10 callsubr
          -143 189 10 callsubr
          267 -203 10 callsubr
          -252 324 10 callsubr
          367 -278 10 callsubr
          -291 377 10 callsubr
          364 -281 10 callsubr
          -247 323 10 callsubr
          257 -203 10 callsubr
          -136 188 10 callsubr
          endchar
        </CharString>
        <CharString name="doubledanda">
          -194 230 742 rmoveto
          282 callsubr
          138 hmoveto
          282 callsubr
          endchar
        </CharString>
        <CharString name="dvA">
          240 -8 callsubr
          162 hlineto
          2 16 rlineto
          -178 -40 callgsubr
          endchar
        </CharString>
        <CharString name="dvAA">
          511 -8 callsubr
          253 271 callgsubr
          162 hlineto
          3 16 rlineto
          -449 -40 callgsubr
          endchar
        </CharString>
        <CharString name="dvAI">
          74 296 19 rmoveto
          51 callgsubr
          134 -76 callgsubr
          -135 hlineto
          215 -95 -46 9 -111 80 callgsubr
          105 42 -10 -198 90 hvcurveto
          -568 212 callsubr
          endchar
        </CharString>
        <CharString name="dvAU">
          230 callsubr
          -76 hlineto
          263 -88 -45 11 -111 -10 callgsubr
          105 45 -6 -112 103 hvcurveto
          -355 -40 callgsubr
          -34 hlineto
          146 callgsubr
          endchar
        </CharString>
        <CharString name="dvAbbreviationsign">
          -67 282 516 rmoveto
          -95 -77 -65 -91 -16 hvcurveto
          -91 -16 59 -65 95 hhcurveto
          93 74 64 90 16 hvcurveto
          93 16 -56 65 -93 hhcurveto
          -16 vmoveto
          83 47 -59 -83 -14 hvcurveto
          -81 -15 -68 -57 -83 hhcurveto
          -86 -49 58 82 14 hvcurveto
          82 14 71 58 86 hhcurveto
          endchar
        </CharString>
        <CharString name="dvAcandra">
          240 -8 callsubr
          162 hlineto
          2 16 rlineto
          -178 -40 callgsubr
          761 575 76 callgsubr
          endchar
        </CharString>
        <CharString name="dvAnusvara">
          -576 -20 879 rmoveto
          14 2 -8 10 -15 hhcurveto
          -14 -91 callgsubr
          endchar
        </CharString>
        <CharString name="dvAnusvara.amI">
          -576 138 879 164 callsubr
        </CharString>
        <CharString name="dvAvagraha">
          -18 281 75 rmoveto
          92 36 53 48 7 hvcurveto
          27 149 -269 103 25 143 rrcurveto
          69 12 67 16 57 hhcurveto
          178 -76 callgsubr
          -182 hlineto
          -69 -69 -21 -79 -14 hvcurveto
          -28 -155 270 -102 -25 -138 rrcurveto
          -46 -7 -40 -40 -68 hhcurveto
          -241 250 callsubr
        </CharString>
        <CharString name="dvB">
          -127 559 355 rmoveto
          106 18 -50 132 -166 -23 callgsubr
          146 106 111 124 22 hvcurveto
          -199 222 112 callsubr
          264 147 -87 callgsubr
          -597 -100 callsubr
          258 -588 rmoveto
          -66 callgsubr
          endchar
        </CharString>
        <CharString name="dvBA">
          114 498 -52 callgsubr
          -760 -100 callsubr
          581 130 callgsubr
          -132 -120 -91 -149 -26 hvcurveto
          8 callsubr
          12 65 30 53 42 37 268 -312 rcurveline
          -35 -41 -55 -25 -69 hhcurveto
          endchar
        </CharString>
        <CharString name="dvBH">
          -81 201 callsubr
          194 314 callsubr
          -193 -39 callgsubr
        </CharString>
        <CharString name="dvBHA">
          166 210 152 rmoveto
          -79 -49 55 83 15 hvcurveto
          85 15 71 54 87 hhcurveto
          122 hlineto
          -19 -105 rlineto
          -110 -19 -62 -62 -82 hhcurveto
          180 173 rmoveto
          18 104 rlineto
          200 hlineto
          -75 -429 rlineto
          17 hlineto
          128 724 rlineto
          162 hlineto
          2 16 rlineto
          -179 hlineto
          -52 -295 rlineto
          -200 -39 callgsubr
        </CharString>
        <CharString name="dvBH_LA">
          799 201 callsubr
          179 hlineto
          -12 -27 -9 -29 -6 -32 rrcurveto
          -133 -25 60 -104 147 -81 callsubr
          -881 -100 callsubr
          570 58 callgsubr
          -87 -64 -45 -70 -38 hvcurveto
          -184 -39 callgsubr
        </CharString>
        <CharString name="dvBH_NA">
          682 210 57 callgsubr
          -21 -27 -14 -32 -6 -36 rrcurveto
          -101 -17 62 -73 108 hhcurveto
          106 86 73 103 19 -15 callgsubr
          161 -76 callgsubr
          -720 -100 callsubr
          542 203 callsubr
          -68 -58 -24 -42 -39 hvcurveto
          -211 218 callgsubr
          64 50 72 1 callsubr
          194 9 -62 callsubr
          endchar
        </CharString>
        <CharString name="dvBH_R">
          -93 214 172 167 callsubr
          180 173 rmoveto
          15 84 rlineto
          193 -76 callgsubr
          -194 2 callgsubr
          59 51 74 197 callsubr
          -123 hlineto
          -96 -75 -53 -82 -17 hvcurveto
          183 callgsubr
          -175 -405 rmoveto
          350 299 4 24 -380 -323 rlineto
          endchar
        </CharString>
        <CharString name="dvBH_RA">
          187 214 172 167 callsubr
          180 173 rmoveto
          204 callsubr
          -47 -265 rlineto
          17 hlineto
          128 724 rlineto
          162 hlineto
          3 16 rlineto
          -179 hlineto
          -52 -295 rlineto
          -221 2 callgsubr
          59 51 74 197 callsubr
          -123 hlineto
          -96 -75 -53 -82 -17 hvcurveto
          183 callgsubr
          endchar
        </CharString>
        <CharString name="dvBH_R_YA">
          626 214 172 rmoveto
          -79 -49 55 83 15 hvcurveto
          73 13 71 46 85 hhcurveto
          122 hlineto
          -15 -85 272 callgsubr
          180 173 rmoveto
          15 84 rlineto
          167 hlineto
          172 callgsubr
          -10 -55 2 -49 13 -39 -384 -327 rcurveline
          26 hlineto
          364 312 rlineto
          -73 31 72 -41 102 52 callgsubr
          -82 -70 -59 -98 -14 320 callgsubr
          90 13 62 50 74 197 callsubr
          -123 hlineto
          -96 -75 -53 -82 -17 hvcurveto
          -90 -19 58 -64 40 callgsubr
          398 -191 10 callgsubr
          endchar
        </CharString>
        <CharString name="dvBH_VA">
          593 766 141 -99 callsubr
          -556 11 2 callsubr
          185 64 callgsubr
          3 16 rlineto
          -655 -100 callsubr
          476 -53 callsubr
          349 callgsubr
          -189 -39 callgsubr
        </CharString>
        <CharString name="dvBH_YA">
          626 210 152 -44 callsubr
          582 2 10 callgsubr
          -402 171 rmoveto
          18 104 rlineto
          168 hlineto
          364 callsubr
          86 -101 161 hhcurveto
          131 88 75 70 36 hvcurveto
          -50 -283 rlineto
          17 hlineto
          127 724 rlineto
          162 hlineto
          3 16 rlineto
          -693 hlineto
          -3 -16 rlineto
          246 hlineto
          -15 -89 rlineto
          -149 -26 -104 -41 -109 hhcurveto
          -187 -39 callgsubr
        </CharString>
        <CharString name="dvB_BA">
          574 360 577 rmoveto
          147 50 -110 -100 -12 hvcurveto
          -1 -4 -1 -5 -1 -5 -1 -4 0 -3 -1 -4 -11 -45 -26 -51 -41 -39 183 callsubr
          598 -577 rmoveto
          -67 callgsubr
          -1220 -100 callsubr
          1041 130 callgsubr
          -111 -102 -64 -109 -46 hvcurveto
          88 -8 -59 85 -133 -23 callgsubr
          119 93 74 95 42 hvcurveto
          -107 9 87 -62 110 96 callgsubr
          -461 hmoveto
          -66 callgsubr
          535 441 17 callsubr
          endchar
        </CharString>
        <CharString name="dvB_BHA">
          612 656 -4 callgsubr
          120 21 -37 72 -96 hhcurveto
          -19 -18 361 callsubr
          -682 -100 callsubr
          690 hlineto
          5 15 16 3 17 134 callgsubr
          -66 -56 -27 -46 -35 hvcurveto
          102 11 -53 119 -158 -23 callgsubr
          106 85 59 80 47 hvcurveto
          -75 2 52 -48 79 -11 callgsubr
          -476 252 78 callsubr
          -2 -11 -3 -11 -3 -11 rrcurveto
          -1 -2 -1 -2 -2 vvcurveto
          -14 -38 -23 -39 -34 -32 -48 callgsubr
          endchar
        </CharString>
        <CharString name="dvB_BH_RA">
          633 360 577 78 callsubr
          -1 -4 -1 -4 -1 -5 -4 -10 -4 -11 -2 -11 rrcurveto
          -1 vlineto
          -14 -36 -23 -36 -31 -30 -48 callgsubr
          375 36 rmoveto
          -79 -49 55 82 15 hvcurveto
          3 9 3 9 2 8 rrcurveto
          58 24 62 36 75 hhcurveto
          122 hlineto
          -15 -85 272 callgsubr
          56 552 rmoveto
          5 16 16 3 17 197 callsubr
          -123 hlineto
          -66 -56 -25 -42 -34 hvcurveto
          101 7 -54 114 -154 -23 callgsubr
          110 87 63 84 46 hvcurveto
          -68 6 50 -43 76 -11 callgsubr
          204 callsubr
          -47 -265 rlineto
          191 callsubr
          -682 250 callsubr
        </CharString>
        <CharString name="dvB_DA">
          492 360 577 -52 callsubr
          880 588 -87 callgsubr
          -1138 -100 callsubr
          951 126 callsubr
          -122 -117 -50 -119 -49 242 callgsubr
          97 41 hvcurveto
          -99 8 73 -65 111 -28 callsubr
        </CharString>
        <CharString name="dvB_DHA">
          554 236 callsubr
          943 588 116 callsubr
          -21 -20 -3 -7 -19 hvcurveto
          1 -667 vlineto
          -89 callsubr
          636 152 callsubr
          -60 -5 -64 -39 -24 -75 rrcurveto
          0 vlineto
          150 callsubr
          -90 2 80 -50 100 hhcurveto
          114 101 63 96 51 hvcurveto
          -48 -275 193 callsubr
        </CharString>
        <CharString name="dvB_DH_VA">
          1015 236 callsubr
          1241 588 63 callsubr
          -642 -100 callsubr
          463 -53 callsubr
          -122 -115 -81 -133 -30 hvcurveto
          0 vlineto
          -159 -41 -108 69 callsubr
          -21 -20 -3 -7 -19 hvcurveto
          1 -667 vlineto
          -89 callsubr
          636 152 callsubr
          -59 -5 -64 -39 -24 -75 rrcurveto
          -1 hlineto
          150 callsubr
          -92 -3 77 -48 108 hhcurveto
          134 99 67 124 53 hvcurveto
          -116 1 84 -66 114 82 callgsubr
          -211 141 -99 callsubr
          endchar
        </CharString>
        <CharString name="dvB_JA">
          697 285 136 7 callsubr
        </CharString>
        <CharString name="dvB_JHA">
          693 292 296 callgsubr
          11 65 31 52 42 38 266 -309 rcurveline
          -38 -40 -53 -25 -70 hhcurveto
          902 588 rmoveto
          -72 -410 rlineto
          -417 284 callsubr
          99 18 77 54 callgsubr
          115 208 callgsubr
          -1339 -100 callsubr
          917 53 callsubr
          -10 -54 -9 -54 -26 -63 -45 -47 rlinecurve
          -265 308 rlineto
          38 47 58 20 60 hhcurveto
          33 28 -6 -9 24 hvcurveto
          3 17 rlineto
          9 -24 -28 5 -33 hhcurveto
          -132 -123 -91 260 callgsubr
          -146 -25 95 304 callsubr
          149 97 115 131 26 hvcurveto
          -47 19 55 -21 67 hhcurveto
          45 hlineto
          121 57 -56 -92 -17 hvcurveto
          -70 -12 -58 -64 -114 hhcurveto
          -132 -52 76 81 1 hvcurveto
          -15 hlineto
          -44 -244 rlineto
          17 hlineto
          34 188 rlineto
          -29 5 37 -88 145 hhcurveto
          125 66 70 80 14 hvcurveto
          16 89 -45 45 -60 16 283 347 callsubr
        </CharString>
        <CharString name="dvB_J_YA">
          1154 360 577 rmoveto
          153 48 -119 -103 -18 hvcurveto
          -2 -8 -10 -47 -26 -52 -43 -41 rlinecurve
          -268 311 rlineto
          -47 callsubr
          1036 18 23 callsubr
          -1801 -100 callsubr
          1354 214 callgsubr
          -96 -17 -69 -68 -92 hhcurveto
          -88 -45 154 callsubr
          1 8 rlineto
          1 3 1 2 3 vvcurveto
          1 4 rlineto
          2 vlineto
          0 vlineto
          105 15 -51 127 -163 -23 callgsubr
          117 91 71 92 43 hvcurveto
          6 -73 50 -50 76 -1 107 -1 74 76 18 106 86 callsubr
          endchar
        </CharString>
        <CharString name="dvB_JxA">
          697 677 35 rmoveto
          -101 callsubr
          -392 101 7 callsubr
        </CharString>
        <CharString name="dvB_LA">
          779 1007 103 callsubr
          -1425 -100 callsubr
          1114 58 callgsubr
          -98 -69 -57 -86 -35 hvcurveto
          89 -8 -58 87 -135 -23 callgsubr
          115 91 69 91 44 hvcurveto
          -103 2 62 -73 123 -78 callsubr
          -722 32 rmoveto
          -66 callgsubr
          75 441 rmoveto
          150 49 -115 -102 -15 hvcurveto
          -2 -6 -1 -6 -1 -7 rrcurveto
          0 vlineto
          -11 -45 -26 -50 -41 -39 183 callsubr
          endchar
        </CharString>
        <CharString name="dvB_L_YA">
          1300 285 136 rmoveto
          -66 callgsubr
          1181 18 rmoveto
          -153 -84 99 167 334 callsubr
          104 41 155 27 -94 callsubr
          507 570 -87 callgsubr
          -1946 -100 callsubr
          1499 249 callsubr
          173 callgsubr
          -8 hlineto
          -2 67 -65 41 -75 -3 -122 -6 -62 -89 -25 -78 rrcurveto
          -2 hlineto
          77 3 -32 96 -117 hhcurveto
          -99 -69 -58 -87 -35 hvcurveto
          90 -7 -58 88 -136 -23 callgsubr
          117 91 71 92 43 hvcurveto
          -104 2 60 -75 125 hhcurveto
          11 8 1 1 10 hvcurveto
          -86 callsubr
          115 20 70 88 116 hhcurveto
          111 135 callgsubr
          19 149 83 86 113 6 rlinecurve
          76 4 64 -47 -12 -69 rrcurveto
          328 callsubr
          -70 callsubr
          -1451 -147 112 callsubr
          endchar
        </CharString>
        <CharString name="dvB_NA">
          655 557 334 rmoveto
          96 17 80 -102 callgsubr
          -197 243 -52 callsubr
          1043 588 352 callgsubr
          1123 203 callsubr
          -90 -71 -42 -68 -37 hvcurveto
          95 -1 -58 97 -142 -23 callgsubr
          118 92 73 93 43 hvcurveto
          -75 6 59 -51 90 -14 callsubr
        </CharString>
        <CharString name="dvB_R">
          -127 624 -40 callsubr
          -597 -100 callsubr
          532 -369 rmoveto
          106 18 -50 132 -166 -23 callgsubr
          32 30 5 10 28 hvcurveto
          -235 -181 rlineto
          23 hlineto
          282 218 61 44 40 67 13 72 rlinecurve
          -199 222 -52 callsubr
          endchar
        </CharString>
        <CharString name="dvB_RA">
          114 457 180 261 callsubr
          -760 -100 callsubr
          581 238 callsubr
          -13 -63 72 -119 hhcurveto
          -137 -118 -91 -149 -26 hvcurveto
          100 callgsubr
          endchar
        </CharString>
        <CharString name="dvB_SA">
          681 360 577 -52 callsubr
          626 475 12 callgsubr
          -1327 -100 callsubr
          889 -3 callgsubr
          -101 hlineto
          92 -5 -58 91 -138 -23 callgsubr
          110 87 63 84 46 hvcurveto
          -11 -62 -8 callgsubr
        </CharString>
        <CharString name="dvB_SHA">
          637 884 180 callgsubr
          -22 -22 -3 -6 -20 hvcurveto
          -706 -100 callsubr
          709 hlineto
          6 19 23 3 22 318 callsubr
          -138 hlineto
          104 14 -52 124 -161 -23 callgsubr
          110 87 63 84 46 hvcurveto
          -11 -62 rlineto
          -127 -23 51 -87 127 hhcurveto
          122 72 92 300 callsubr
          -524 378 -52 callsubr
          736 -136 rmoveto
          -67 callgsubr
          -179 hlineto
          -130 -740 rlineto
          endchar
        </CharString>
        <CharString name="dvB_TA">
          557 360 577 -52 callsubr
          945 588 -87 callgsubr
          -1203 -100 callsubr
          1025 171 callsubr
          -126 -101 -41 -89 -58 hvcurveto
          102 10 -53 118 -157 -23 callgsubr
          100 81 52 73 49 hvcurveto
          -154 -24 85 -89 156 hhcurveto
          24 hlineto
          -69 callsubr
          161 29 119 73 163 hhcurveto
          166 344 callgsubr
          endchar
        </CharString>
        <CharString name="dvB_VA">
          566 739 141 -99 callsubr
          -379 436 -52 callsubr
          957 604 rmoveto
          -1212 -100 callsubr
          1033 -53 callsubr
          -108 -101 -63 -106 -44 242 callgsubr
          96 41 hvcurveto
          -107 8 81 -60 110 91 callgsubr
        </CharString>
        <CharString name="dvB_YA">
          606 1279 -40 callsubr
          -1252 -100 callsubr
          805 172 callsubr
          -149 -27 -100 -31 -112 hhcurveto
          -23 hlineto
          74 -19 -60 64 -115 -23 callgsubr
          129 98 87 106 36 hvcurveto
          -109 16 79 -66 125 -69 callgsubr
          -832 -588 rmoveto
          -66 callgsubr
          487 18 rmoveto
          -136 -80 76 134 4 hvcurveto
          4 25 -1 25 -4 25 rrcurveto
          16 -97 callgsubr
          -412 423 112 callsubr
          endchar
        </CharString>
        <CharString name="dvC">
          -99 433 525 rmoveto
          70 callgsubr
          130 114 104 114 16 hvcurveto
          -14 hlineto
          -106 -18 -106 -96 170 callsubr
          19 96 367 callgsubr
          246 199 -87 callgsubr
          -623 250 callsubr
        </CharString>
        <CharString name="dvCA">
          142 815 -40 callsubr
          -788 -100 callsubr
          610 101 callsubr
          -95 -29 -67 -75 -17 -97 rrcurveto
          -131 -23 89 -78 116 207 callsubr
        </CharString>
        <CharString name="dvCH">
          232 906 724 46 callsubr
          184 callgsubr
          143 25 -74 62 -85 30 callgsubr
          -159 -122 67 135 24 hvcurveto
          91 16 77 76 145 hhcurveto
          24 314 callsubr
          -24 227 callsubr
          18 hvcurveto
          24 135 rlineto
          endchar
        </CharString>
        <CharString name="dvCHA">
          232 906 724 46 callsubr
          184 callgsubr
          160 callsubr
          -326 -675 -79 callgsubr
          endchar
        </CharString>
        <CharString name="dvCH_R">
          232 906 724 46 callsubr
          5 6 0 5 181 callsubr
          183 20 151 115 33 185 rlinecurve
          143 25 -74 62 -85 30 callgsubr
          -159 -122 67 135 24 hvcurveto
          91 16 77 76 145 hhcurveto
          24 314 callsubr
          -24 227 callsubr
          18 hvcurveto
          24 135 rlineto
          endchar
        </CharString>
        <CharString name="dvCH_RA">
          232 334 49 -79 callgsubr
          572 675 46 callsubr
          5 6 0 5 181 callsubr
          183 20 151 115 33 185 rlinecurve
          160 callsubr
          endchar
        </CharString>
        <CharString name="dvCH_R_YA">
          -2 callgsubr
          6 7 0 6 181 callsubr
          167 19 140 99 47 159 rlinecurve
          248 callgsubr
        </CharString>
        <CharString name="dvCH_YA">
          -2 callgsubr
          hhcurveto
          193 169 102 178 52 hvcurveto
          248 callgsubr
        </CharString>
        <CharString name="dvC_CA">
          569 323 131 rmoveto
          119 callsubr
          19 96 367 callgsubr
          341 hlineto
          -93 -28 -66 -73 -19 -94 rrcurveto
          -103 -27 -97 -96 -120 hhcurveto
          919 593 -87 callgsubr
          -1215 -100 callsubr
          1037 hlineto
          -70 -396 rlineto
          -103 -21 -103 -94 170 callsubr
          20 95 283 callgsubr
          -784 32 callsubr
          108 91 72 90 42 hvcurveto
          -103 4 81 -59 101 207 callsubr
        </CharString>
        <CharString name="dvC_CHA">
          713 815 49 -79 callgsubr
          572 675 315 callgsubr
          -1359 -100 callsubr
          628 hlineto
          -24 -135 -20 -109 55 -45 71 341 callsubr
          -81 -7 -78 -48 -29 -87 rrcurveto
          -81 -37 -89 -71 -100 13 callsubr
          89 81 52 68 48 hvcurveto
          -131 -14 121 -71 167 179 callsubr
        </CharString>
        <CharString name="dvC_CH_VA">
          716 728 -307 rmoveto
          -94 -70 60 111 20 hvcurveto
          18 95 81 70 120 4 rrcurveto
          0 vlineto
          3 4 0 3 hhcurveto
          56 54 9 16 49 hvcurveto
          -34 -193 rlineto
          0 vlineto
          -75 -13 -70 -97 -127 hhcurveto
          87 356 -79 callgsubr
          572 675 315 callgsubr
          -1359 -100 callsubr
          628 hlineto
          -24 -135 -20 -109 55 -45 71 341 callsubr
          -81 -7 -78 -48 -29 -87 rrcurveto
          -81 -37 -89 -71 -100 13 callsubr
          89 81 52 68 48 hvcurveto
          -12 -110 85 -69 127 -18 -80 -16 -75 -63 -16 -95 rrcurveto
          -119 -21 79 -68 99 hhcurveto
          98 68 53 60 34 hvcurveto
          277 callsubr
          16 hlineto
          81 454 126 48 96 101 25 143 rlinecurve
          160 callsubr
          endchar
        </CharString>
        <CharString name="dvC_MA">
          646 1091 -54 callgsubr
          661 572 -87 callgsubr
          -1292 -100 callsubr
          864 hlineto
          -49 -279 rlineto
          -122 hlineto
          -92 -75 -54 -85 -22 hvcurveto
          -92 -28 -73 -83 -107 13 callsubr
          95 71 60 76 39 hvcurveto
          -70 4 51 -45 77 -34 callsubr
        </CharString>
        <CharString name="dvC_NA">
          655 557 210 callsubr
          -1301 hlineto
          -3 -16 rlineto
          1123 134 callsubr
          -2 -1 -3 -2 vvcurveto
          -104 -20 -78 -92 -118 13 callsubr
          107 78 71 88 33 hvcurveto
          -69 12 57 -45 85 -14 callsubr
        </CharString>
        <CharString name="dvC_R">
          -99 650 -40 callsubr
          -623 -100 callsubr
          406 -199 rmoveto
          70 callgsubr
          28 27 5 9 26 hvcurveto
          -228 -175 rlineto
          23 hlineto
          273 209 59 41 43 63 9 66 rlinecurve
          -14 hlineto
          -106 -18 -106 -96 170 callsubr
          19 96 367 callgsubr
          endchar
        </CharString>
        <CharString name="dvC_RA">
          142 815 -40 callsubr
          -788 -100 callsubr
          610 101 callsubr
          -95 -29 -67 -75 -17 -97 rrcurveto
          -131 -23 89 -78 116 hhcurveto
          28 28 5 9 25 hvcurveto
          -228 -175 rlineto
          23 hlineto
          279 213 32 24 27 30 19 33 rlinecurve
          215 callgsubr
          endchar
        </CharString>
        <CharString name="dvC_YA">
          639 805 -49 callsubr
          507 570 -87 callgsubr
          -1285 -100 callsubr
          838 -28 callgsubr
          rrcurveto
          -1 -3 0 -3 -2 vvcurveto
          -160 -33 -82 -121 -146 13 callsubr
          132 84 92 130 42 hvcurveto
          -123 7 82 -76 133 -69 callgsubr
          endchar
        </CharString>
        <CharString name="dvCandrabindu">
          -576 140 969 76 callgsubr
          -140 33 165 callgsubr
        </CharString>
        <CharString name="dvD">
          31 519 -278 82 callsubr
          204 1002 -87 callgsubr
          -677 -19 callgsubr
          endchar
        </CharString>
        <CharString name="dvDA">
          31 704 -40 callsubr
          -677 -19 callgsubr
          endchar
        </CharString>
        <CharString name="dvDA_mvR">
          -4 511 235 rmoveto
          -16 hlineto
          -133 -24 329 callgsubr
          hhcurveto
          -112 -73 53 94 18 hvcurveto
          91 17 90 40 80 hhcurveto
          71 -76 callgsubr
          -71 hlineto
          -97 -59 47 71 13 hvcurveto
          84 15 81 32 86 hhcurveto
          172 hlineto
          27 154 -20 callsubr
          -642 -100 callsubr
          464 hlineto
          -24 -138 rlineto
          -159 hlineto
          -94 -87 -35 -97 -17 hvcurveto
          -15 -83 70 -39 55 -3 rrcurveto
          -2 vlineto
          -41 -1 -97 -31 -20 -106 rrcurveto
          -100 -19 80 -63 120 hhcurveto
          130 115 69 140 25 hvcurveto
          endchar
        </CharString>
        <CharString name="dvDD">
          7 334 -287 82 callsubr
          365 1011 -87 callgsubr
          -652 -29 callsubr
          161 hlineto
          32 178 rlineto
          endchar
        </CharString>
        <CharString name="dvDDA">
          7 680 -40 callsubr
          -652 -29 callsubr
          161 hlineto
          32 178 rlineto
          endchar
        </CharString>
        <CharString name="dvDDH">
          50 367 -255 82 callsubr
          375 979 246 callgsubr
          -65 callgsubr
          76 hlineto
          29 167 rlineto
          endchar
        </CharString>
        <CharString name="dvDDHA">
          50 723 724 246 callgsubr
          -65 callgsubr
          76 hlineto
          29 167 rlineto
          endchar
        </CharString>
        <CharString name="dvDDH_DDHA">
          92 765 -40 callsubr
          -738 -100 callsubr
          487 hlineto
          -23 -133 rlineto
          -95 hlineto
          -147 -128 -72 -156 -27 hvcurveto
          -21 -120 63 -76 115 -24 -116 -22 -96 -73 -23 -125 rrcurveto
          -145 -26 98 -84 165 hhcurveto
          141 95 64 88 15 hvcurveto
          76 13 -44 62 -99 hhcurveto
          -88 -69 -44 -74 -11 224 callsubr
          7 vhcurveto
          62 9 62 41 77 hhcurveto
          89 39 -52 -70 -12 hvcurveto
          -78 -13 -93 -58 -125 hhcurveto
          -157 -91 76 135 25 hvcurveto
          141 26 132 74 138 hhcurveto
          0 2 vlineto
          141 93 64 88 17 hvcurveto
          77 15 -46 61 -99 hhcurveto
          -88 -69 -44 -74 -11 224 callsubr
          7 vhcurveto
          62 9 65 41 77 hhcurveto
          86 38 -52 -67 -11 hvcurveto
          -81 -14 -93 -58 -124 hhcurveto
          -155 -93 76 135 25 hvcurveto
          142 26 123 70 136 hhcurveto
          109 hlineto
          26 149 rlineto
          endchar
        </CharString>
        <CharString name="dvDDH_R">
          50 359 -325 161 callgsubr
          383 1049 31 callsubr
        </CharString>
        <CharString name="dvDDH_RA">
          50 723 724 31 callsubr
        </CharString>
        <CharString name="dvDDH_VA">
          50 723 -40 callsubr
          -696 -100 callsubr
          477 hlineto
          -23 -133 rlineto
          -85 hlineto
          -147 -128 -72 -156 -27 hvcurveto
          -21 -121 69 -80 115 -18 -91 -7 -88 -56 -19 -108 rrcurveto
          -105 -19 70 -61 93 hhcurveto
          90 63 51 60 32 hvcurveto
          -31 -178 rlineto
          16 hlineto
          74 417 63 27 41 49 11 59 rlinecurve
          73 14 -43 61 -88 hhcurveto
          -83 -67 -44 -74 -11 224 callsubr
          7 vhcurveto
          64 9 60 39 75 hhcurveto
          74 38 -50 -68 -12 hvcurveto
          -80 -14 -80 -60 -118 hhcurveto
          -155 -91 76 135 24 hvcurveto
          145 26 124 67 135 hhcurveto
          99 hlineto
          26 149 rlineto
          -316 -901 rmoveto
          -85 -63 54 96 19 hvcurveto
          98 19 82 65 154 hhcurveto
          37 32 5 10 29 hvcurveto
          -28 -161 rlineto
          -76 -16 -67 -91 -113 hhcurveto
          endchar
        </CharString>
        <CharString name="dvDDH_YA">
          645 1030 -52 callgsubr
          -1294 276 callgsubr
          -65 callgsubr
          298 hlineto
          76 106 -11 -95 -16 hvcurveto
          -88 -15 -80 -20 -99 235 callsubr
          -125 -21 50 288 callsubr
          -56 80 117 23 hvcurveto
          2 8 1 10 3 9 rrcurveto
          108 85 26 96 16 hvcurveto
          104 17 -102 20 -89 hhcurveto
          -228 hlineto
          26 151 rlineto
          621 264 callsubr
          -83 -109 -135 hhcurveto
          endchar
        </CharString>
        <CharString name="dvDDHxA">
          50 723 724 246 callgsubr
          -65 callgsubr
          76 hlineto
          29 167 rlineto
          -241 -825 rmoveto
          -101 callsubr
          endchar
        </CharString>
        <CharString name="dvDD_DDA">
          24 697 -40 callsubr
          -670 -100 callsubr
          470 hlineto
          -23 -133 rlineto
          -144 hlineto
          -85 -87 -17 -90 -16 hvcurveto
          -89 -16 84 -25 101 hhcurveto
          105 82 -18 -98 -17 hvcurveto
          -70 -12 -64 -43 -105 hhcurveto
          -150 -55 67 80 14 hvcurveto
          -17 hlineto
          -14 -79 54 -58 79 -16 -74 -6 -61 -28 -12 -68 rrcurveto
          -94 -16 78 -19 107 hhcurveto
          109 77 -19 -97 -17 hvcurveto
          -70 -12 -67 -43 -105 hhcurveto
          -138 -64 61 86 14 hvcurveto
          -17 hlineto
          -101 -18 85 -62 138 hhcurveto
          120 67 50 79 14 hvcurveto
          105 19 -80 27 -120 hhcurveto
          -97 -77 13 84 17 hvcurveto
          66 13 67 26 136 hhcurveto
          120 66 50 79 15 hvcurveto
          103 20 -82 29 -121 hhcurveto
          -91 -82 18 80 17 hvcurveto
          72 15 71 19 76 hhcurveto
          167 143 callgsubr
          23 133 rlineto
          endchar
        </CharString>
        <CharString name="dvDD_DDHA">
          37 701 -40 callsubr
          -632 -100 callsubr
          452 hlineto
          -24 -133 rlineto
          -144 hlineto
          -85 -86 -24 -92 -17 hvcurveto
          -89 -15 83 -16 101 hhcurveto
          105 83 -18 -98 -18 hvcurveto
          -70 -12 -64 -43 -105 hhcurveto
          -150 -55 67 80 14 hvcurveto
          -17 hlineto
          -14 -84 60 -60 88 -11 -113 -20 -93 -71 -23 -129 rrcurveto
          -139 -25 99 -78 145 hhcurveto
          128 87 64 88 16 hvcurveto
          77 14 -44 61 -92 hhcurveto
          -80 -63 -44 -74 -13 224 callsubr
          8 vhcurveto
          60 11 55 42 73 hhcurveto
          79 38 -52 -70 -12 hvcurveto
          -78 -14 -85 -58 -112 hhcurveto
          -140 -89 75 125 24 hvcurveto
          140 26 122 73 136 hhcurveto
          120 65 50 79 15 hvcurveto
          102 19 -81 30 -120 hhcurveto
          -91 -81 9 80 15 hvcurveto
          79 15 86 21 67 hhcurveto
          161 143 callgsubr
          24 133 rlineto
          endchar
        </CharString>
        <CharString name="dvDD_R">
          7 308 -357 82 callsubr
          391 1081 43 callsubr
        </CharString>
        <CharString name="dvDD_RA">
          7 680 724 43 callsubr
        </CharString>
        <CharString name="dvDD_VA">
          37 356 -260 rmoveto
          73 417 36 22 22 34 7 41 rlinecurve
          105 18 -84 27 -116 hhcurveto
          -91 -80 12 79 14 hvcurveto
          83 15 86 15 67 hhcurveto
          161 143 callgsubr
          24 133 rlineto
          199 -76 callgsubr
          -683 -100 callsubr
          467 hlineto
          -24 -133 rlineto
          -144 hlineto
          -85 -87 -22 -89 -15 hvcurveto
          -88 -15 79 -22 104 hhcurveto
          105 83 -18 -98 -18 hvcurveto
          -70 -13 -63 -43 -104 hhcurveto
          -150 -56 67 80 14 hvcurveto
          -17 hlineto
          -15 -85 63 -61 89 -9 -82 -9 -83 -52 -17 -98 rrcurveto
          -102 -18 66 -62 98 hhcurveto
          79 66 34 63 36 hvcurveto
          -30 -167 rlineto
          -148 86 rmoveto
          -89 -60 53 93 17 hvcurveto
          103 18 102 50 114 hhcurveto
          48 39 8 15 31 hvcurveto
          -31 -174 rlineto
          -62 -11 -63 -86 -115 hhcurveto
          endchar
        </CharString>
        <CharString name="dvDD_YA">
          567 952 -52 callgsubr
          -1213 -29 callsubr
          313 hlineto
          76 103 -10 -95 -17 hvcurveto
          -78 -14 -80 -20 -99 235 callsubr
          -125 -22 51 288 callsubr
          -55 80 117 22 hvcurveto
          2 8 1 10 3 9 rrcurveto
          108 83 24 88 16 hvcurveto
          104 19 -99 19 -89 hhcurveto
          -158 hlineto
          29 162 rlineto
          545 264 callsubr
          -83 -109 -135 hhcurveto
          endchar
        </CharString>
        <CharString name="dvDDxA">
          7 680 -40 callsubr
          -652 -29 callsubr
          161 hlineto
          32 178 rlineto
          -266 -857 rmoveto
          -101 callsubr
          endchar
        </CharString>
        <CharString name="dvDH">
          -137 558 334 rmoveto
          -15 hlineto
          -119 -21 -112 -83 -141 -63 callgsubr
          157 112 91 127 23 hvcurveto
          endchar
        </CharString>
        <CharString name="dvDHA">
          117 791 724 116 callsubr
          -96 -72 -68 -87 -15 hvcurveto
          79 callgsubr
          -66 -6 -71 -46 -17 -91 rrcurveto
          213 callgsubr
          17 hlineto
          128 724 rlineto
          endchar
        </CharString>
        <CharString name="dvDH_MA">
          651 663 152 -92 callsubr
          661 572 -87 callgsubr
          -716 -100 callsubr
          288 hlineto
          -49 -279 rlineto
          -122 hlineto
          -97 -77 -60 -92 -18 hvcurveto
          -96 -35 -104 -65 -125 -63 callgsubr
          121 96 54 83 47 hvcurveto
          -71 4 51 -46 78 -11 callgsubr
          18 104 rlineto
          232 hlineto
          -75 -429 -16 callsubr
          -66 -279 rmoveto
          -232 127 callgsubr
          232 hlineto
          endchar
        </CharString>
        <CharString name="dvDH_NA">
          668 1341 -40 callsubr
          -732 -100 callsubr
          554 134 callsubr
          -119 -21 -122 -83 -141 -63 callgsubr
          134 108 66 98 43 hvcurveto
          -72 132 callsubr
        </CharString>
        <CharString name="dvDH_N_YA">
          1130 1802 -40 callsubr
          -1193 -100 callsubr
          746 198 callgsubr
          -338 hlineto
          -109 -83 -63 -96 -24 hvcurveto
          -2 -6 rlineto
          -104 -34 -113 -69 -129 -63 callgsubr
          124 101 56 86 49 hvcurveto
          -83 2 59 -56 95 -22 callgsubr
          253 203 callgsubr
          -171 -31 89 -126 158 -69 callgsubr
          -1080 -431 -62 callsubr
          735 -139 9 callsubr
          endchar
        </CharString>
        <CharString name="dvDH_R">
          -147 558 334 rmoveto
          -15 hlineto
          -119 -21 -112 -83 -141 -63 callgsubr
          43 40 7 12 35 hvcurveto
          -255 -193 rlineto
          24 hlineto
          305 233 53 38 35 56 12 65 rlinecurve
          endchar
        </CharString>
        <CharString name="dvDH_RA">
          117 484 hmoveto
          103 callgsubr
          -96 -72 -68 -87 -15 hvcurveto
          -17 -99 55 -51 66 -12 rrcurveto
          -2 vlineto
          -66 -6 -71 -46 -17 -91 rrcurveto
          219 callsubr
        </CharString>
        <CharString name="dvDH_VA">
          578 1089 724 63 callsubr
          -642 -100 callsubr
          463 -53 callsubr
          -122 -115 -81 -133 -30 hvcurveto
          0 vlineto
          -159 -41 -108 -83 -141 -63 callgsubr
          134 99 67 124 53 hvcurveto
          -116 1 84 -66 114 82 callgsubr
          -211 141 -99 callsubr
          endchar
        </CharString>
        <CharString name="dvDH_YA">
          603 1276 -40 callsubr
          -667 -100 callsubr
          220 -28 callgsubr
          -1 338 callgsubr
          -26 -114 -105 -140 hhcurveto
          -99 -81 55 97 19 hvcurveto
          77 15 62 62 callgsubr
          -96 -72 -68 -87 -15 hvcurveto
          118 callgsubr
          -90 rrcurveto
          124 callsubr
          17 hlineto
          127 724 rlineto
          -345 -570 -104 callgsubr
          endchar
        </CharString>
        <CharString name="dvD_BA">
          155 callsubr
          -57 -116 -22 hvcurveto
          -17 -89 57 -75 82 -16 -70 -13 -68 -57 -15 -86 rrcurveto
          -112 -19 77 -67 92 hhcurveto
          82 70 44 69 38 hvcurveto
          -31 -173 rlineto
          67 callsubr
        </CharString>
        <CharString name="dvD_BHA">
          727 531 -278 82 callsubr
          192 1002 -87 callgsubr
          -677 -19 callgsubr
          237 -572 2 callsubr
          200 hlineto
          -75 -429 144 callsubr
          -52 -295 rlineto
          -200 -39 callgsubr
        </CharString>
        <CharString name="dvD_B_RA">
          155 callsubr
          -57 -116 -22 hvcurveto
          -17 -89 57 -75 82 -16 -70 -13 -68 -57 -15 -86 rrcurveto
          -112 -19 77 -67 92 hhcurveto
          22 21 3 6 20 hvcurveto
          -189 -142 rlineto
          25 hlineto
          234 178 rlineto
          0 vlineto
          23 18 19 23 15 27 -31 -173 rcurveline
          67 callsubr
        </CharString>
        <CharString name="dvD_DA">
          -52 390 -27 rmoveto
          49 278 rlineto
          -16 hlineto
          -130 -23 -96 -68 -114 hhcurveto
          -103 -61 49 97 16 hvcurveto
          72 12 67 60 106 hhcurveto
          109 314 callsubr
          -111 hlineto
          -103 -51 54 68 12 hvcurveto
          91 16 92 36 108 hhcurveto
          135 hlineto
          23 128 -20 callsubr
          -609 -100 callsubr
          430 67 callgsubr
          1 -38 -40 0 -39 hhcurveto
          -117 -98 -35 -106 -20 hvcurveto
          -14 -76 58 -47 59 -8 rrcurveto
          -2 vlineto
          -72 -8 -62 -54 -13 -76 rrcurveto
          -97 -17 63 -66 117 hhcurveto
          113 77 63 58 28 hvcurveto
          -33 -185 rlineto
          endchar
        </CharString>
        <CharString name="dvD_DHA">
          309 982 -40 callsubr
          -955 -100 callsubr
          768 74 callgsubr
          345 callgsubr
          -103 hhcurveto
          -91 -74 49 103 20 hvcurveto
          76 15 63 71 118 hhcurveto
          5 -76 callgsubr
          -5 hlineto
          -118 -48 61 82 15 hvcurveto
          14 75 71 69 120 -9 3 16 rcurveline
          -136 10 -74 -78 -14 -82 -16 -96 61 -46 61 -10 rrcurveto
          -2 vlineto
          -71 -9 -68 -55 -16 -86 rrcurveto
          -113 -21 81 -58 102 123 callsubr
        </CharString>
        <CharString name="dvD_GA">
          32 705 -40 callsubr
          -678 -100 callsubr
          485 hlineto
          -24 328 callgsubr
          -141 -104 -57 -123 -22 hvcurveto
          -18 -101 58 -70 106 -7 -28 -154 rcurveline
          -61 -11 -35 -66 -87 hhcurveto
          -77 -20 65 57 9 hvcurveto
          5 31 rlineto
          -17 hlineto
          -2 -10 -1 -10 -2 -10 rrcurveto
          -69 -14 33 -70 86 hhcurveto
          91 46 67 74 13 hvcurveto
          27 155 rlineto
          2 hlineto
          85 76 42 56 37 hvcurveto
          -83 -467 rlineto
          17 hlineto
          96 541 rlineto
          -15 hlineto
          -109 -20 -119 -47 -71 hhcurveto
          -109 -58 63 97 17 hvcurveto
          109 19 97 58 133 hhcurveto
          129 hlineto
          257 callgsubr
          endchar
        </CharString>
        <CharString name="dvD_GHA">
          309 213 -28 rmoveto
          -97 -70 49 104 19 hvcurveto
          75 14 61 71 121 hhcurveto
          5 -76 callgsubr
          -5 hlineto
          -118 -48 57 85 15 hvcurveto
          69 12 61 68 108 hhcurveto
          52 51 -15 -36 50 hvcurveto
          -43 -37 -31 -51 -12 -69 345 callgsubr
          -100 hhcurveto
          769 752 -87 callgsubr
          -955 -100 callsubr
          768 126 callsubr
          -76 -74 -19 -43 -56 hvcurveto
          35 -48 -56 21 -61 hhcurveto
          -119 -67 -74 -78 -13 hvcurveto
          -16 -93 57 -46 66 -12 -1 -2 rcurveline
          -66 -6 -72 -54 -16 -90 rrcurveto
          -113 -20 79 -58 103 123 callsubr
        </CharString>
        <CharString name="dvD_G_RA">
          32 705 -40 callsubr
          -678 -100 callsubr
          486 hlineto
          -25 328 callgsubr
          -141 -104 -57 -125 -22 hvcurveto
          -17 -97 57 -72 106 -7 -15 -86 rcurveline
          -61 -10 -36 -64 -90 hhcurveto
          -75 -23 61 61 12 hvcurveto
          6 31 rlineto
          -17 hlineto
          -2 -10 -2 -10 -1 -10 rrcurveto
          -70 -7 22 -69 87 hhcurveto
          92 48 64 77 13 hvcurveto
          14 85 rlineto
          1 1 0 1 hhcurveto
          81 79 42 56 37 hvcurveto
          -38 -215 -353 -302 rlineto
          25 hlineto
          323 276 -39 -226 rlineto
          17 hlineto
          95 541 rlineto
          -15 hlineto
          -107 -20 -116 -49 -76 hhcurveto
          -108 -58 64 96 18 hvcurveto
          109 20 94 58 133 hhcurveto
          131 hlineto
          28 152 rlineto
          endchar
        </CharString>
        <CharString name="dvD_MA">
          197 124 47 rmoveto
          68 13 63 49 75 hhcurveto
          101 hlineto
          -15 -83 rlineto
          -92 -17 -56 -55 -70 hhcurveto
          -62 -45 45 68 13 hvcurveto
          272 133 rmoveto
          25 145 rlineto
          -153 hlineto
          -91 -63 39 91 17 hvcurveto
          79 15 76 38 89 hhcurveto
          144 hlineto
          257 callgsubr
          223 hlineto
          -95 -544 rlineto
          275 544 315 callgsubr
          -843 hlineto
          -2 -16 rlineto
          423 hlineto
          -24 -136 rlineto
          -129 hlineto
          -98 -83 -40 -93 -17 hvcurveto
          -99 -18 74 -47 93 hhcurveto
          138 hlineto
          -22 -129 rlineto
          -102 hlineto
          -85 -71 -53 -80 -14 hvcurveto
          -76 -13 51 -52 73 hhcurveto
          76 65 56 105 19 hvcurveto
          15 84 rlineto
          214 hlineto
          -57 -324 rlineto
          17 hlineto
          155 884 rlineto
          endchar
        </CharString>
        <CharString name="dvD_NA">
          774 529 -278 82 callsubr
          166 612 44 callsubr
          -1420 -19 callgsubr
          735 hlineto
          -38 -213 rlineto
          -352 hlineto
          -116 -86 -71 -106 -18 hvcurveto
          19 callsubr
        </CharString>
        <CharString name="dvD_R">
          31 518 -278 82 callsubr
          205 1002 -87 callgsubr
          -677 90 callsubr
          28 27 5 8 25 156 callsubr
          281 215 28 19 22 23 14 27 rlinecurve
          -66 callsubr
        </CharString>
        <CharString name="dvD_RA">
          31 704 -40 callsubr
          -677 90 callsubr
          28 27 5 8 25 156 callsubr
          281 215 28 19 22 23 14 27 rlinecurve
          -66 callsubr
        </CharString>
        <CharString name="dvD_VA">
          155 callsubr
          -59 -124 -22 hvcurveto
          127 callsubr
          -295 -798 241 callsubr
          endchar
        </CharString>
        <CharString name="dvD_YA">
          114 223 67 rmoveto
          -108 -81 50 92 15 hvcurveto
          91 15 85 38 105 hhcurveto
          68 -76 callgsubr
          -70 hlineto
          -98 -77 33 88 16 hvcurveto
          88 16 95 32 93 hhcurveto
          94 hlineto
          22 129 rlineto
          192 hlineto
          -68 -388 rlineto
          -187 -33 -139 -82 -145 hhcurveto
          564 657 -87 callgsubr
          -731 -100 callsubr
          343 hlineto
          -20 -114 rlineto
          1 -27 -26 0 -27 hhcurveto
          -95 -105 -31 -102 -20 hvcurveto
          -18 -91 76 -37 52 -3 rrcurveto
          -2 vlineto
          -42 -99 -31 -105 -16 hvcurveto
          -103 -16 95 -55 109 hhcurveto
          133 111 58 122 58 hvcurveto
          -41 -231 37 callsubr
        </CharString>
        <CharString name="dvE">
          74 747 -40 callsubr
          -721 212 callsubr
          51 callgsubr
          endchar
        </CharString>
        <CharString name="dvEcandra">
          75 587 999 221 callgsubr
          137 -275 -87 callgsubr
          -721 212 callsubr
          51 callgsubr
          endchar
        </CharString>
        <CharString name="dvEight">
          29 callsubr
        </CharString>
        <CharString name="dvEyelash">
          -336 299 441 rmoveto
          -2 -17 -19 -3 -33 hhcurveto
          -96 -106 38 123 22 hvcurveto
          -16 hlineto
          -134 -24 113 -44 102 hhcurveto
          31 29 3 3 13 hvcurveto
          24 299 -87 callgsubr
          -332 250 callsubr
        </CharString>
        <CharString name="dvEyelash_HA">
          150 642 334 callgsubr
          -787 -100 callsubr
          617 358 callgsubr
          -175 hlineto
          -89 -80 -33 -91 -16 hvcurveto
          -10 -56 27 -35 29 -20 rrcurveto
          -7 -22 -32 -8 -38 hhcurveto
          -82 -85 37 123 22 hvcurveto
          -16 hlineto
          -132 -23 96 -44 88 hhcurveto
          49 35 12 10 24 hvcurveto
          7 -4 7 -2 6 -2 -90 -33 -59 -79 -15 -86 -74 callsubr
        </CharString>
        <CharString name="dvEyelash_YA">
          295 454 154 rmoveto
          -143 -84 99 167 30 268 callsubr
          6 1 9 rrcurveto
          4 0 1 0 hlineto
          127 284 callgsubr
          251 hlineto
          -65 -371 rlineto
          -121 -29 -113 -78 -128 hhcurveto
          514 570 -87 callgsubr
          -941 -100 callsubr
          494 172 callsubr
          -148 -27 -99 -32 -111 hhcurveto
          -102 -98 37 123 21 hvcurveto
          -16 hlineto
          -22 -123 97 -47 96 -5 -2 -7 299 callsubr
          rrcurveto
          -171 -30 86 -111 157 hhcurveto
          138 86 78 70 34 hvcurveto
          -50 -286 37 callsubr
        </CharString>
        <CharString name="dvFive">
          87 callsubr
        </CharString>
        <CharString name="dvFour">
          167 callgsubr
        </CharString>
        <CharString name="dvG">
          -132 517 -40 callsubr
          -490 -97 callsubr
          endchar
        </CharString>
        <CharString name="dvGA">
          107 491 -52 callgsubr
          -753 -97 callsubr
          224 hlineto
          -127 -724 rlineto
          endchar
        </CharString>
        <CharString name="dvGH">
          -110 654 -40 callsubr
          -627 42 callsubr
          153 128 104 144 26 hvcurveto
          -15 hlineto
          -137 -24 -128 -95 -137 hhcurveto
          -121 -84 53 114 20 81 callgsubr
          endchar
        </CharString>
        <CharString name="dvGHA">
          145 287 143 callsubr
          -791 hlineto
          -3 -16 rlineto
          155 168 callsubr
        </CharString>
        <CharString name="dvGH_MA">
          638 1083 -54 callgsubr
          -363 -20 rmoveto
          -121 -84 53 114 20 81 callgsubr
          685 hlineto
          -49 -279 rlineto
          -122 hlineto
          -87 -71 -48 -77 -26 hvcurveto
          -3 -7 rlineto
          -90 -33 -79 -91 -126 hhcurveto
          1024 592 -87 callgsubr
          -1284 42 callsubr
          119 77 72 70 37 hvcurveto
          -74 2 52 -48 79 -34 callsubr
        </CharString>
        <CharString name="dvGH_NA">
          646 548 334 rmoveto
          96 17 80 -102 callgsubr
          -261 -202 rmoveto
          -121 -85 53 114 21 81 callgsubr
          943 203 callsubr
          -106 -82 -60 -91 -26 hvcurveto
          -2 -6 rlineto
          -121 -41 -78 -101 -129 hhcurveto
          1032 592 -87 callgsubr
          -1292 42 callsubr
          122 78 78 101 44 hvcurveto
          -80 3 60 -55 93 -14 callsubr
        </CharString>
        <CharString name="dvGH_R">
          -110 654 -40 callsubr
          -627 42 callsubr
          40 37 354 callsubr
          307 234 61 45 43 66 14 77 rlinecurve
          -15 hlineto
          -137 -24 -128 -95 -137 hhcurveto
          -121 -84 53 114 20 81 callgsubr
          endchar
        </CharString>
        <CharString name="dvGH_RA">
          145 287 343 callsubr
          16 73 69 145 hhcurveto
          46 -76 callgsubr
          -49 hlineto
          -131 -42 54 101 17 hvcurveto
          19 102 rlineto
          441 hlineto
          -64 -363 rlineto
          -134 -25 -132 -95 -132 hhcurveto
          531 592 -87 callgsubr
          -791 356 callgsubr
          -19 -102 -19 -109 54 -45 72 341 callsubr
          -85 -7 -83 -56 -17 -96 rrcurveto
          -121 -21 89 -62 131 hhcurveto
          39 38 354 callsubr
          308 235 36 26 30 34 21 39 rlinecurve
          -49 -276 193 callsubr
        </CharString>
        <CharString name="dvGH_YA">
          636 287 252 callgsubr
          -43 54 101 18 hvcurveto
          18 102 rlineto
          664 -28 callgsubr
          -1 243 callsubr
          rrcurveto
          0 vlineto
          -159 -27 -127 -110 -138 hhcurveto
          515 22 -104 callgsubr
          507 570 -87 callgsubr
          -1282 42 callsubr
          133 112 88 131 47 hvcurveto
          -122 8 82 -75 132 -69 callgsubr
          endchar
        </CharString>
        <CharString name="dvG_BA">
          509 893 -52 callgsubr
          -1155 -97 callsubr
          626 130 callgsubr
          -132 -120 -91 -149 -26 hvcurveto
          -146 -26 99 -87 130 96 callgsubr
          74 441 17 callsubr
          endchar
        </CharString>
        <CharString name="dvG_BHA">
          551 595 -4 callgsubr
          119 21 -33 73 -97 hhcurveto
          -19 -19 -3 -6 -17 hvcurveto
          -622 -100 callsubr
          333 hlineto
          -55 -310 133 callsubr
          -6 -30 rlineto
          -69 -14 30 -70 90 hhcurveto
          92 45 67 74 13 hvcurveto
          55 310 rlineto
          280 hlineto
          5 15 16 3 16 45 callsubr
          56 -63 87 hhcurveto
          97 64 62 127 22 hvcurveto
          endchar
        </CharString>
        <CharString name="dvG_BH_YA">
          1011 1177 154 21 callgsubr
          -621 28 callgsubr
          -40 -26 -30 -46 -10 -60 rrcurveto
          188 callgsubr
          -122 259 callsubr
          66 62 127 22 hvcurveto
          endchar
        </CharString>
        <CharString name="dvG_DA">
          426 1099 -40 callsubr
          -1072 -97 callsubr
          535 74 callgsubr
          16 callsubr
        </CharString>
        <CharString name="dvG_DHA">
          509 893 hmoveto
          128 724 rlineto
          162 hlineto
          276 callsubr
          -79 53 102 17 hvcurveto
          75 13 64 62 -16 callgsubr
          -46 -17 -91 rrcurveto
          213 callgsubr
          endchar
        </CharString>
        <CharString name="dvG_DH_VA">
          970 1354 -52 callgsubr
          -642 -100 callsubr
          463 -53 callsubr
          -122 -115 -81 -133 -30 hvcurveto
          0 vlineto
          -159 -41 -108 -83 -141 hhcurveto
          -103 -81 48 104 19 hvcurveto
          77 13 64 63 -16 callgsubr
          -47 -17 -93 rrcurveto
          -111 -20 228 callsubr
          -194 141 -99 callsubr
          endchar
        </CharString>
        <CharString name="dvG_DH_YA">
          995 1161 -49 callsubr
          218 -154 rmoveto
          -67 callgsubr
          -667 -100 callsubr
          220 -28 callgsubr
          -1 338 callgsubr
          -26 -114 -105 -140 hhcurveto
          -99 -81 55 97 19 hvcurveto
          77 15 62 63 -16 callgsubr
          -47 -17 -90 rrcurveto
          124 callsubr
          endchar
        </CharString>
        <CharString name="dvG_GA">
          511 895 -52 callgsubr
          -1157 -97 callsubr
          387 -11 callsubr
          -16 65 57 10 hvcurveto
          6 31 rlineto
          -17 hlineto
          -6 -30 rlineto
          -69 -12 28 -70 90 hhcurveto
          92 45 67 74 13 hvcurveto
          55 310 rlineto
          224 hlineto
          -127 -724 rlineto
          endchar
        </CharString>
        <CharString name="dvG_GHA">
          527 669 143 callsubr
          -1173 -97 callsubr
          187 168 callsubr
        </CharString>
        <CharString name="dvG_JA">
          631 1304 -40 callsubr
          -1277 -97 callsubr
          749 hlineto
          -38 -215 rlineto
          -274 -90 callsubr
          257 hlineto
          -87 -493 193 callsubr
        </CharString>
        <CharString name="dvG_LA">
          715 943 103 callsubr
          -1361 -97 callsubr
          700 hlineto
          -29 -164 -116 -5 -60 -92 -24 -76 rlinecurve
          -2 hlineto
          77 3 -32 96 -117 hhcurveto
          -125 -77 -93 -126 -22 hvcurveto
          -133 -25 60 -104 147 86 callgsubr
        </CharString>
        <CharString name="dvG_MA">
          571 1016 -54 callgsubr
          661 572 -87 callgsubr
          -1217 -97 callsubr
          439 175 callsubr
        </CharString>
        <CharString name="dvG_NA">
          589 491 210 callsubr
          -1235 -97 callsubr
          707 hlineto
          -38 -213 rlineto
          -352 hlineto
          -116 -86 -71 -106 -18 hvcurveto
          19 callsubr
        </CharString>
        <CharString name="dvG_NNA">
          654 649 234 rmoveto
          -46 callsubr
          678 239 callgsubr
          -1300 -97 callsubr
          195 202 callsubr
        </CharString>
        <CharString name="dvG_N_YA">
          1055 1221 154 9 callsubr
          -735 139 -62 callsubr
          1242 431 -87 callgsubr
          -1701 -97 callsubr
          904 95 callsubr
        </CharString>
        <CharString name="dvG_R">
          109 callgsubr
          endchar
        </CharString>
        <CharString name="dvG_RA">
          89 callsubr
          endchar
        </CharString>
        <CharString name="dvG_R_YA">
          544 710 -49 callsubr
          507 570 -87 callgsubr
          -1190 49 callsubr
          -13 24 -75 94 hhcurveto
          93 44 67 74 13 hvcurveto
          48 270 rlineto
          393 -28 callgsubr
          -8 -46 0 -41 8 -37 -371 -316 rcurveline
          25 hlineto
          350 299 rlineto
          -89 26 75 -52 111 -69 callgsubr
          endchar
        </CharString>
        <CharString name="dvG_SA">
          616 846 220 callgsubr
          -1262 -97 callsubr
          474 242 callsubr
          -36 -205 -8 callgsubr
        </CharString>
        <CharString name="dvG_VA">
          500 673 141 4 callgsubr
          -1146 -97 callsubr
          617 196 callsubr
          -68 callsubr
          endchar
        </CharString>
        <CharString name="dvG_YA">
          543 709 -49 callsubr
          507 570 -87 callgsubr
          -1189 -97 callsubr
          392 -28 callgsubr
          -14 callgsubr
        </CharString>
        <CharString name="dvGx">
          -132 517 -40 callsubr
          -490 -97 callsubr
          -199 -582 rmoveto
          -101 callsubr
          endchar
        </CharString>
        <CharString name="dvGxA">
          107 491 -52 callgsubr
          -753 -97 callsubr
          224 hlineto
          -127 -724 rlineto
          -296 142 rmoveto
          -101 callsubr
          endchar
        </CharString>
        <CharString name="dvGx_R">
          109 callgsubr
          -311 -593 rmoveto
          -101 callsubr
          endchar
        </CharString>
        <CharString name="dvGx_RA">
          89 callsubr
          -408 131 rmoveto
          -101 callsubr
          endchar
        </CharString>
        <CharString name="dvH">
          11 307 -374 161 callgsubr
          224 939 34 callsubr
          -33 -91 -16 hvcurveto
          -14 -79 58 -37 38 -12 -90 -33 -59 -79 -15 -86 -74 callsubr
        </CharString>
        <CharString name="dvHA">
          20 512 233 callgsubr
          -33 -91 -16 hvcurveto
          -14 -79 58 -37 38 -12 -90 -33 -59 -79 -15 -86 -74 callsubr
        </CharString>
        <CharString name="dvHA_mU">
          210 callgsubr
          -91 -17 hvcurveto
          -13 -71 52 -42 42 -14 -88 -30 -59 -74 -15 -94 rrcurveto
          -110 -18 61 -102 167 hhcurveto
          120 51 -44 -79 -14 hvcurveto
          -80 -14 -88 -44 -94 hhcurveto
          -116 -87 53 120 28 hvcurveto
          -16 hlineto
          -122 -29 89 -67 130 hhcurveto
          115 83 53 87 16 hvcurveto
          88 15 -58 52 -128 hhcurveto
          -154 -61 92 103 19 hvcurveto
          99 18 83 98 133 hhcurveto
          141 35 -100 -79 -14 hvcurveto
          17 hlineto
          87 15 -38 108 -154 hhcurveto
          -22 -22 -2 -5 -20 hvcurveto
          -57 14 -47 38 13 67 rrcurveto
          76 15 74 33 80 hhcurveto
          189 hlineto
          endchar
        </CharString>
        <CharString name="dvHA_mUU">
          210 callgsubr
          -88 -17 hvcurveto
          -14 -76 54 -41 43 -13 -90 -32 -59 -77 -15 -89 -17 -92 35 -87 99 -25 -67 -19 -48 -48 -12 -64 rrcurveto
          -80 -16 50 -58 82 hhcurveto
          14 12 1 2 14 hvcurveto
          3 17 rlineto
          -2 -15 -13 -1 -12 hhcurveto
          -73 -43 47 70 13 hvcurveto
          69 13 65 59 98 hhcurveto
          109 79 -86 -147 -26 hvcurveto
          -3 -21 rlineto
          17 hlineto
          4 1 5 1 4 vhcurveto
          167 30 -85 90 -122 hhcurveto
          0 vlineto
          -134 -51 91 104 19 hvcurveto
          97 18 86 100 132 hhcurveto
          136 38 -100 -79 -14 hvcurveto
          17 hlineto
          87 15 -39 108 -150 hhcurveto
          -23 -22 -3 -4 -20 hvcurveto
          -60 208 callsubr
          76 14 75 33 80 hhcurveto
          189 hlineto
          endchar
        </CharString>
        <CharString name="dvHA_mvR">
          84 606 558 rmoveto
          0 vlineto
          29 166 rlineto
          136 -76 callgsubr
          -730 -100 callsubr
          577 358 callgsubr
          -275 325 callsubr
          -11 -65 43 -36 39 -16 -89 -46 -50 -83 -15 -89 -25 -141 73 -128 183 -3 3 17 rcurveline
          -173 -69 119 136 25 hvcurveto
          113 21 88 124 187 hhcurveto
          117 59 -58 -75 6 hvcurveto
          1 -23 -33 1 -55 hhcurveto
          -88 -49 -47 -56 -11 hvcurveto
          -75 -14 56 -44 67 hhcurveto
          39 25 5 5 17 hvcurveto
          -87 callsubr
          -8 -26 -27 -3 -25 hhcurveto
          -61 -51 34 69 13 hvcurveto
          45 9 46 44 77 hhcurveto
          128 hlineto
          90 1 -68 72 -130 hhcurveto
          -54 -47 -9 -17 -40 hvcurveto
          -49 17 -35 35 10 56 rrcurveto
          74 13 71 25 72 hhcurveto
          290 hlineto
          endchar
        </CharString>
        <CharString name="dvH_LA">
          111 616 558 rmoveto
          0 vlineto
          29 166 rlineto
          153 -76 callgsubr
          -757 -100 callsubr
          587 358 callgsubr
          -285 hlineto
          -84 -73 -31 -82 -16 hvcurveto
          -12 -59 40 -41 42 -19 -89 -46 -50 -83 -15 -89 rrcurveto
          -141 -25 76 -131 180 hhcurveto
          3 17 rlineto
          -173 -69 123 132 25 hvcurveto
          115 22 87 122 187 hhcurveto
          116 59 -58 -74 7 hvcurveto
          -61 -5 -34 -46 -10 -40 rrcurveto
          -2 hlineto
          41 3 -21 50 -63 hhcurveto
          -66 -46 -50 -66 -12 hvcurveto
          -71 -13 39 -53 74 hhcurveto
          7 6 0 1 5 hvcurveto
          3 15 rlineto
          -1 -5 -6 0 -10 hhcurveto
          -67 -29 47 62 12 hvcurveto
          52 10 39 50 57 hhcurveto
          56 25 -48 -75 -13 hvcurveto
          -1 -5 rlineto
          16 hlineto
          1 5 rlineto
          77 14 44 46 57 hhcurveto
          55 22 -47 -55 -10 hvcurveto
          -62 -11 -44 -47 -71 hhcurveto
          -6 -6 0 1 -5 hvcurveto
          -3 -15 rlineto
          -1 5 6 0 7 hhcurveto
          79 53 53 71 12 hvcurveto
          11 61 -26 52 -60 3 rrcurveto
          83 -6 -66 65 -125 hhcurveto
          -54 -47 -9 -17 -40 hvcurveto
          -49 17 -35 38 10 53 rrcurveto
          72 14 71 27 75 hhcurveto
          296 hlineto
          endchar
        </CharString>
        <CharString name="dvH_MA">
          608 353 callgsubr
          313 hlineto
          -49 -279 rlineto
          -122 hlineto
          -84 -69 -45 -72 -29 hvcurveto
          -191 hlineto
          -23 -22 -3 -4 -20 hvcurveto
          -60 215 callsubr
          14 77 27 75 hhcurveto
          192 hlineto
          111 -397 173 callsubr
          -1245 209 callsubr
          -20 59 247 callsubr
          18 89 94 129 hhcurveto
          189 hlineto
          -2 -7 -2 -7 -1 -8 26 callgsubr
        </CharString>
        <CharString name="dvH_NA">
          612 353 callgsubr
          567 134 callsubr
          -2 -1 -2 -2 vvcurveto
          -187 hlineto
          -23 -22 -3 -4 -20 hvcurveto
          -60 215 callsubr
          15 76 27 75 hhcurveto
          192 hlineto
          5 -215 44 callsubr
          -1249 209 callsubr
          -19 58 247 callsubr
          19 88 94 129 hhcurveto
          188 hlineto
          -89 -6 62 -63 100 -14 callsubr
        </CharString>
        <CharString name="dvH_NNA">
          64 307 34 rmoveto
          -55 -26 45 63 11 hvcurveto
          35 198 rlineto
          8 27 31 4 34 hhcurveto
          33 28 -4 -9 23 hvcurveto
          -33 -197 rlineto
          -60 -10 -36 -48 -62 hhcurveto
          269 524 rmoveto
          0 vlineto
          29 166 rlineto
          153 -76 callgsubr
          -717 -100 callsubr
          547 358 callgsubr
          -245 325 callsubr
          -11 -64 41 -35 39 -17 -88 -46 -48 -84 -16 -94 -25 -141 62 -115 154 -11 3 17 rcurveline
          -144 7 -57 111 25 132 18 93 51 95 110 37 -34 -193 rcurveline
          -71 -13 35 -51 64 hhcurveto
          71 40 51 71 13 hvcurveto
          33 191 79 -36 22 -83 -16 -93 rlinecurve
          -26 -147 rlineto
          17 358 callsubr
          133 23 -53 114 -172 hhcurveto
          -52 -44 -9 -16 -38 hvcurveto
          -47 16 -35 35 10 56 rrcurveto
          71 13 74 28 72 hhcurveto
          257 hlineto
          endchar
        </CharString>
        <CharString name="dvH_R">
          11 304 -397 161 callgsubr
          227 962 33 callsubr
        </CharString>
        <CharString name="dvH_RA">
          11 512 565 33 callsubr
        </CharString>
        <CharString name="dvH_VA">
          64 374 -6 rmoveto
          -66 -48 49 73 14 hvcurveto
          14 75 64 45 64 -1 79 -1 29 -57 -4 -52 -4 -23 rcurveline
          -50 -15 -50 -58 -77 hhcurveto
          172 564 rmoveto
          0 vlineto
          29 166 rlineto
          153 -76 callgsubr
          -687 -100 callsubr
          517 358 callgsubr
          -215 325 callsubr
          -12 -66 45 -35 37 -16 -82 -45 -55 -82 -16 -91 -25 -141 62 -123 154 -8 3 17 rcurveline
          -144 6 -58 113 25 136 rrcurveto
          121 22 104 116 151 hhcurveto
          120 62 -79 -98 -6 hvcurveto
          41 -12 -36 35 -64 hhcurveto
          -75 -69 -52 -83 -14 hvcurveto
          -83 -14 56 -55 73 hhcurveto
          65 47 36 42 25 hvcurveto
          -22 -122 rlineto
          16 hlineto
          37 217 rlineto
          117 20 -64 100 -143 hhcurveto
          -47 -42 -10 -17 -37 hvcurveto
          2 2 -49 18 -33 34 10 55 rlinecurve
          74 13 69 25 72 hhcurveto
          232 hlineto
          endchar
        </CharString>
        <CharString name="dvH_YA">
          302 474 -84 rmoveto
          -106 -61 75 94 17 hvcurveto
          2 8 1 9 2 9 108 1 80 35 18 88 rrcurveto
          93 19 -86 40 -87 hhcurveto
          -51 -46 -11 -19 -41 hvcurveto
          -51 17 -39 36 11 59 rrcurveto
          71 13 70 28 72 hhcurveto
          222 hlineto
          1 12 29 163 rlineto
          245 hlineto
          -98 -556 rlineto
          0 vlineto
          -145 -25 -97 -107 -122 hhcurveto
          207 -56 rmoveto
          152 864 -20 callsubr
          -948 -100 callsubr
          507 358 callgsubr
          -205 325 callsubr
          -12 -68 47 -37 42 -17 -88 -50 -58 -92 -19 -101 -30 -162 81 -142 193 -8 3 17 rcurveline
          -180 7 -79 130 30 157 rrcurveto
          130 25 106 138 170 hhcurveto
          70 87 -26 -91 -17 hvcurveto
          -75 -14 -77 -33 -98 235 callsubr
          -105 -19 63 -86 121 hhcurveto
          99 81 63 95 45 hvcurveto
          -35 -198 rlineto
          endchar
        </CharString>
        <CharString name="dvI">
          6 701 724 315 callgsubr
          -682 hlineto
          -2 -16 rlineto
          494 243 callgsubr
          68 -40 92 hhcurveto
          45 hlineto
          89 94 -30 -118 -21 hvcurveto
          -75 -13 -65 -68 -114 hhcurveto
          -130 -58 78 99 6 hvcurveto
          -15 hlineto
          -44 -254 rlineto
          16 hlineto
          166 callgsubr
          -39 3 43 -90 143 hhcurveto
          129 68 74 85 15 hvcurveto
          126 23 -98 38 -100 hhcurveto
          -45 284 callsubr
          99 18 77 54 callgsubr
          endchar
        </CharString>
        <CharString name="dvII">
          24 callgsubr
          endchar
        </CharString>
        <CharString name="dvII_Anusvara">
          24 callgsubr
          644 915 165 callgsubr
        </CharString>
        <CharString name="dvJ">
          -21 706 493 315 callgsubr
          -278 -90 callsubr
          302 231 -87 callgsubr
          -719 250 callsubr
        </CharString>
        <CharString name="dvJA">
          292 callsubr
          -38 -215 rlineto
          -274 -90 callsubr
          257 hlineto
          -87 -493 193 callsubr
        </CharString>
        <CharString name="dvJH">
          -6 745 -40 callsubr
          -711 -76 callsubr
          273 -1 rcurveline
          2 15 rlineto
          -405 hlineto
          25 callsubr
          endchar
        </CharString>
        <CharString name="dvJHA">
          262 756 724 rmoveto
          -72 -410 rlineto
          -417 hlineto
          25 callsubr
          115 208 callgsubr
          -901 -76 callsubr
          284 347 callsubr
        </CharString>
        <CharString name="dvJH_MA">
          754 1199 -54 callgsubr
          -499 162 rmoveto
          25 callsubr
          469 hlineto
          -49 -279 rlineto
          -122 hlineto
          -89 -73 -51 -80 -24 hvcurveto
          785 410 -87 callgsubr
          -1393 -76 callsubr
          241 -1 rcurveline
          -1 -3 0 -3 -1 -3 26 callgsubr
        </CharString>
        <CharString name="dvJH_NA">
          749 267 314 rmoveto
          25 callsubr
          714 134 callsubr
          299 callsubr
          -1 -7 rrcurveto
          20 20 44 callsubr
          -1388 -76 callsubr
          234 -1 rcurveline
          -83 1 60 -56 95 -14 callsubr
        </CharString>
        <CharString name="dvJH_R">
          1 437 -100 rmoveto
          205 241 6 30 -233 -271 rlineto
          330 824 -87 callgsubr
          -711 -76 callsubr
          274 -1 rcurveline
          2 15 rlineto
          -406 hlineto
          25 callsubr
          endchar
        </CharString>
        <CharString name="dvJH_RA">
          304 798 724 rmoveto
          -72 -410 rlineto
          -459 hlineto
          25 callsubr
          157 208 callgsubr
          -943 -76 callsubr
          326 -1 rcurveline
          -9 -50 -299 -349 rlineto
          22 hlineto
          272 319 -39 -219 rlineto
          endchar
        </CharString>
        <CharString name="dvJH_YA">
          717 267 314 rmoveto
          25 callsubr
          413 -28 callgsubr
          -7 -39 -1 -35 4 -32 rrcurveto
          224 -160 -104 callgsubr
          507 570 -87 callgsubr
          -1356 -76 callsubr
          265 -1 rcurveline
          -101 20 78 -60 119 -69 callgsubr
          endchar
        </CharString>
        <CharString name="dvJ_BA">
          653 825 136 113 callgsubr
          212 -136 rmoveto
          -67 callgsubr
          -1299 -100 callsubr
          1120 130 callgsubr
          -76 -72 -30 -54 -52 hvcurveto
          -269 -90 callsubr
          240 hlineto
          -31 -38 -22 -47 -10 -55 rrcurveto
          29 callgsubr
          endchar
        </CharString>
        <CharString name="dvJ_DA">
          583 1256 -40 callsubr
          -1229 -100 callsubr
          1042 126 callsubr
          -85 -82 -24 -55 -59 hvcurveto
          -284 -90 callsubr
          254 hlineto
          -31 -34 -22 -45 -10 -56 rrcurveto
          16 callsubr
        </CharString>
        <CharString name="dvJ_DDA">
          525 1198 -40 callsubr
          -1171 -100 callsubr
          991 185 callsubr
          -154 hlineto
          -56 -64 -12 -41 -41 hvcurveto
          -244 -90 callsubr
          216 hlineto
          -12 -17 -9 -21 -5 -25 105 callsubr
        </CharString>
        <CharString name="dvJ_JA">
          818 1491 -40 callsubr
          -1464 -100 callsubr
          1286 hlineto
          -38 -215 rlineto
          -274 285 callsubr
          198 callsubr
          -279 -90 callsubr
          245 hlineto
          -27 -153 231 callgsubr
          endchar
        </CharString>
        <CharString name="dvJ_JHA">
          807 1301 724 rmoveto
          -72 -410 rlineto
          -417 hlineto
          25 callsubr
          115 208 callgsubr
          -1453 -100 callsubr
          1031 185 callsubr
          -160 hlineto
          -57 -65 -12 -41 -42 hvcurveto
          -275 -90 callsubr
          247 hlineto
          -13 -17 -10 -21 -4 -26 rrcurveto
          -91 -16 69 -40 92 hhcurveto
          45 hlineto
          121 57 -56 -92 -17 hvcurveto
          -70 -12 -58 -64 -114 hhcurveto
          -132 -52 76 81 1 hvcurveto
          -15 hlineto
          -44 -244 rlineto
          17 hlineto
          34 188 rlineto
          -29 5 44 -88 138 hhcurveto
          125 65 70 80 15 hvcurveto
          15 84 -44 49 -61 17 284 347 callsubr
        </CharString>
        <CharString name="dvJ_J_NYA">
          716 1100 -52 callgsubr
          -1362 -100 callsubr
          1183 hlineto
          -38 -215 rlineto
          -742 -90 callsubr
          343 hlineto
          131 82 -71 -124 -22 hvcurveto
          -102 -18 -80 -76 -108 hhcurveto
          -92 -83 55 115 8 hvcurveto
          -16 hlineto
          -46 -262 rlineto
          17 hlineto
          35 200 rlineto
          -57 8 57 -67 109 hhcurveto
          116 90 80 350 callsubr
          19 104 -51 66 -83 25 rrcurveto
          289 hlineto
          -86 -493 rlineto
          endchar
        </CharString>
        <CharString name="dvJ_J_VA">
          1218 1391 141 4 callgsubr
          -1864 -100 callsubr
          1685 -53 callsubr
          -72 -70 -28 -51 -51 hvcurveto
          -272 285 callsubr
          198 callsubr
          -279 -90 callsubr
          245 hlineto
          -27 -153 -18 -103 50 -77 95 -1 rlinecurve
          107 323 callsubr
          243 hlineto
          -31 -36 -22 -45 -9 -53 rrcurveto
          -68 callsubr
          endchar
        </CharString>
        <CharString name="dvJ_J_YA">
          1276 1442 154 23 callsubr
          -1922 -100 callsubr
          1475 214 callgsubr
          -97 -17 -69 -67 198 callsubr
          -279 -90 callsubr
          245 hlineto
          -27 -153 40 callsubr
          73 75 19 107 86 callsubr
          endchar
        </CharString>
        <CharString name="dvJ_KA">
          993 1006 hmoveto
          -102 callsubr
          -1639 -100 callsubr
          1090 hlineto
          -49 -281 rlineto
          75 -12 -54 66 -114 hhcurveto
          -67 -65 -27 -48 -48 hvcurveto
          -278 -90 callsubr
          249 hlineto
          -30 -36 -23 -45 -9 -53 132 callgsubr
        </CharString>
        <CharString name="dvJ_MA">
          715 735 196 -53 callgsubr
          70 54 87 hhcurveto
          122 hlineto
          -18 78 callgsubr
          433 267 callsubr
          41 235 265 callgsubr
          -1361 -100 callsubr
          933 hlineto
          -41 -235 rlineto
          -493 hlineto
          -26 -150 rlineto
          -96 -17 -69 -68 198 callsubr
          -17 hlineto
          -30 -169 40 callsubr
          73 76 19 106 23 133 rcurveline
          276 hlineto
          -62 -25 -38 -51 -11 -63 rrcurveto
          62 callsubr
          232 hlineto
          -83 -473 37 callsubr
        </CharString>
        <CharString name="dvJ_NA">
          723 625 333 -62 callsubr
          771 391 -87 callgsubr
          -1369 -100 callsubr
          1191 hlineto
          -38 -215 rlineto
          -750 -90 callsubr
          294 246 callsubr
          286 hlineto
          -87 -494 193 callsubr
        </CharString>
        <CharString name="dvJ_NY">
          -51 758 -40 callsubr
          -731 -100 callsubr
          696 -195 -87 callgsubr
          -452 -100 callsubr
          2 56 callgsubr
          endchar
        </CharString>
        <CharString name="dvJ_NYA">
          196 580 -52 callgsubr
          -842 -100 callsubr
          663 hlineto
          -31 -179 rlineto
          -385 -100 callsubr
          2 56 callgsubr
          290 hlineto
          -93 -529 rlineto
          endchar
        </CharString>
        <CharString name="dvJ_NY_YA">
          722 888 154 rmoveto
          39 callsubr
          3 0 2 1 3 rrcurveto
          3 1 4 1 4 vhcurveto
          -96 callgsubr
          507 570 -87 callgsubr
          -1368 -100 callsubr
          921 148 callgsubr
          -7 hlineto
          55 -3 -47 35 -85 hhcurveto
          -279 -100 callsubr
          3 56 callgsubr
          183 hlineto
          82 49 -37 -63 -10 hvcurveto
          -1 -3 0 -3 -1 -3 -14 callgsubr
        </CharString>
        <CharString name="dvJ_R">
          -21 284 -20 rmoveto
          392 335 5 25 -422 -360 rlineto
          489 744 -87 callgsubr
          -719 -100 callsubr
          679 -231 -87 callgsubr
          -282 56 callsubr
          endchar
        </CharString>
        <CharString name="dvJ_RA">
          292 callsubr
          -39 -215 rlineto
          -274 56 callsubr
          258 hlineto
          -29 -161 -413 -352 352 callsubr
          17 hlineto
          128 724 rlineto
          endchar
        </CharString>
</ttFont>
